<svg width="114" height="114" viewBox="0 0 114 114" fill="none" xmlns="http://www.w3.org/2000/svg">
<g opacity="0.6">
<path d="M57 73.0312C71.7564 73.0312 83.7188 61.0689 83.7188 46.3125C83.7188 31.5561 71.7564 19.5938 57 19.5938C42.2436 19.5938 30.2812 31.5561 30.2812 46.3125C30.2812 61.0689 42.2436 73.0312 57 73.0312Z" fill="#7DB6D6"/>
<path d="M108.656 55.5465V40.6392C110.724 39.9018 112.219 37.9424 112.219 35.6232C112.219 32.677 109.821 30.2795 106.875 30.2795C106.262 30.2795 105.682 30.4042 105.133 30.5947L97.1512 20.6162C97.6606 19.8022 97.9688 18.8456 97.9688 17.8125C97.9688 14.8663 95.5712 12.4687 92.625 12.4687C91.127 12.4687 89.7768 13.0922 88.8042 14.0879L74.7626 7.60772C74.7787 7.44562 74.8125 7.29066 74.8125 7.125C74.8125 4.17881 72.4149 1.78125 69.4688 1.78125C67.1496 1.78125 65.1902 3.27572 64.4527 5.34375H44.2035C43.4661 3.27572 41.5067 1.78125 39.1875 1.78125C36.2413 1.78125 33.8438 4.17881 33.8438 7.125C33.8438 7.34587 33.8829 7.55784 33.9097 7.77159L25.0747 12.1891C24.1128 11.2646 22.8125 10.6875 21.375 10.6875C18.4288 10.6875 16.0312 13.0851 16.0312 16.0312C16.0312 17.0644 16.3394 18.0209 16.8471 18.8385L8.86528 28.8153C8.31666 28.6247 7.73775 28.5 7.125 28.5C4.17881 28.5 1.78125 30.8976 1.78125 33.8437C1.78125 36.1629 3.27572 38.1223 5.34375 38.8597V50.2045C3.27572 50.9402 1.78125 52.8996 1.78125 55.2187C1.78125 58.1649 4.17881 60.5625 7.125 60.5625C9.10397 60.5625 10.814 59.4688 11.7384 57.8675L21.4623 59.6362C21.8737 62.1745 24.0647 64.125 26.7188 64.125C26.7918 64.125 26.8577 64.1072 26.9289 64.1036L30.3276 72.6002C29.2161 73.5816 28.5 74.9977 28.5 76.5937C28.5 79.5399 30.8976 81.9375 33.8438 81.9375C35.6357 81.9375 37.2157 81.0433 38.1847 79.686L53.4713 84.0536C53.6085 86.2232 55.0335 88.0329 57 88.7347V101.861C54.932 102.598 53.4375 104.558 53.4375 106.877C53.4375 109.823 55.8351 112.221 58.7812 112.221C61.7274 112.221 64.125 109.823 64.125 106.877C64.125 104.558 62.6305 102.598 60.5625 101.861V88.7347C62.6305 87.9973 64.125 86.0379 64.125 83.7187C64.125 82.0123 63.3056 80.5054 62.0552 79.5275L64.182 73.147L80.1652 78.4747C80.2079 80.7494 81.6792 82.6625 83.717 83.3892V101.859C81.6489 102.596 80.1545 104.556 80.1545 106.875C80.1545 109.821 82.552 112.219 85.4982 112.219C88.4444 112.219 90.842 109.821 90.842 106.875C90.842 104.556 89.3475 102.596 87.2795 101.859V83.391C89.3475 82.6536 90.842 80.6942 90.842 78.375C90.842 77.7248 90.7084 77.1085 90.4946 76.5314L104.162 65.1421C104.96 65.6159 105.881 65.9062 106.875 65.9062C109.821 65.9062 112.219 63.5087 112.219 60.5625C112.219 58.2433 110.724 56.2839 108.656 55.5465ZM32.0518 58.6815C32.0482 58.4677 32.0162 58.2629 31.9877 58.0563L46.5993 50.4806L51.1183 65.0388L32.0518 58.6815ZM28.0761 53.6334L25.6073 34.7023L37.8142 34.0913C38.589 35.9688 40.4041 37.2976 42.538 37.3831L45.5287 47.0214L30.3578 54.8874C29.7202 54.2943 28.9417 53.8632 28.0761 53.6334ZM12.0626 31.8131C11.9504 31.5406 11.8061 31.2841 11.6512 31.0365L19.6329 21.0597C19.8396 21.131 20.0426 21.2076 20.2582 21.2539L21.5745 31.3375L12.0626 31.8131ZM23.7886 20.7729C25.52 19.8877 26.7188 18.1046 26.7188 16.0312C26.7188 15.8104 26.6796 15.5984 26.6528 15.3847L35.4878 10.9672C36.4497 11.8916 37.75 12.4687 39.1875 12.4687C40.2812 12.4687 41.2983 12.1357 42.1462 11.5692L53.2077 19.8645L45.1992 27.3386C44.4618 26.9574 43.6371 26.7187 42.75 26.7187C40.3382 26.7187 38.3182 28.3343 37.6556 30.5342L25.1441 31.1594L23.7886 20.7729ZM64.5757 9.25716L55.8529 17.3975L44.5295 8.90625H64.4527C64.4955 9.02381 64.5258 9.14316 64.5757 9.25716ZM69.5418 34.5705L55.2081 42.0037L47.5576 34.3532C47.8907 33.6549 48.0938 32.8854 48.0938 32.0625C48.0938 31.3037 47.9299 30.5858 47.6449 29.9321L56.1022 22.0376L69.7342 32.262C69.5774 32.7643 69.4688 33.2898 69.4688 33.8437C69.4688 34.0931 69.5097 34.33 69.5418 34.5705ZM44.5312 32.0625C44.5312 33.044 43.7332 33.8437 42.75 33.8437C41.7668 33.8437 40.9688 33.044 40.9688 32.0625C40.9688 31.081 41.7668 30.2812 42.75 30.2812C43.7332 30.2812 44.5312 31.081 44.5312 32.0625ZM51.8914 43.7226L48.7403 45.356L46.5868 38.418L51.8914 43.7226ZM49.8127 48.8134L54.533 46.3659L62.8781 54.7111C62.5468 55.4076 62.3438 56.1771 62.3438 57C62.3438 58.7082 63.1631 60.2134 64.4136 61.1913L61.9305 68.6405L55.2793 66.4228L49.8127 48.8134ZM67.6875 58.7812C66.7042 58.7812 65.9062 57.9815 65.9062 57C65.9062 56.0185 66.7042 55.2187 67.6875 55.2187C68.6708 55.2187 69.4688 56.0185 69.4688 57C69.4688 57.9815 68.6708 58.7812 67.6875 58.7812ZM67.6875 51.6562C66.8646 51.6562 66.0951 51.8575 65.3986 52.1924L57.8514 44.6452L71.1752 37.7358C72.1299 38.63 73.4035 39.1875 74.8125 39.1875C75.8064 39.1875 76.7273 38.8972 77.5253 38.4216L85.6354 45.1796L71.2375 53.0331C70.2899 52.1871 69.0555 51.6562 67.6875 51.6562ZM90.0921 22.4883C90.8491 22.9015 91.7041 23.1562 92.625 23.1562C93.2377 23.1562 93.8167 23.0316 94.3653 22.841L102.347 32.8195C101.839 33.6371 101.531 34.5919 101.531 35.625C101.531 35.9118 101.572 36.1897 101.617 36.464L89.0002 43.3467L79.8089 35.6873C80.0227 35.1102 80.1562 34.4939 80.1562 33.8437C80.1562 33.1188 80.0084 32.4294 79.7466 31.7989L90.0921 22.4883ZM104.164 55.9829L91.9428 45.7977L103.327 39.5883C103.838 40.0478 104.435 40.4041 105.096 40.6392V55.5465C104.768 55.6641 104.458 55.8083 104.164 55.9829ZM76.5938 33.8437C76.5938 34.8252 75.7958 35.625 74.8125 35.625C73.8292 35.625 73.0312 34.8252 73.0312 33.8437C73.0312 32.8623 73.8292 32.0625 74.8125 32.0625C75.7958 32.0625 76.5938 32.8623 76.5938 33.8437ZM88.578 47.6342L101.342 58.2718L73.6868 55.7567L88.578 47.6342ZM108.656 35.625C108.656 36.6065 107.858 37.4062 106.875 37.4062C105.892 37.4062 105.094 36.6065 105.094 35.625C105.094 34.6435 105.892 33.8437 106.875 33.8437C107.858 33.8437 108.656 34.6435 108.656 35.625ZM92.625 16.0312C93.6083 16.0312 94.4062 16.831 94.4062 17.8125C94.4062 18.794 93.6083 19.5937 92.625 19.5937C91.6417 19.5937 90.8438 18.794 90.8438 17.8125C90.8438 16.831 91.6417 16.0312 92.625 16.0312ZM87.3293 17.3298C87.3151 17.4919 87.2812 17.6468 87.2812 17.8125C87.2812 18.5375 87.4291 19.2268 87.6909 19.8574L77.3437 29.168C76.5884 28.7547 75.7334 28.5 74.8125 28.5C73.7188 28.5 72.7017 28.8331 71.8538 29.3995L58.7474 19.5688L67.0213 11.8471C67.757 12.2318 68.5817 12.4687 69.4688 12.4687C70.9668 12.4687 72.3187 11.8453 73.2895 10.8496L87.3293 17.3298ZM69.4688 5.34375C70.452 5.34375 71.25 6.14353 71.25 7.125C71.25 8.10647 70.452 8.90625 69.4688 8.90625C68.4855 8.90625 67.6875 8.10647 67.6875 7.125C67.6875 6.14353 68.4855 5.34375 69.4688 5.34375ZM39.1875 5.34375C40.1707 5.34375 40.9688 6.14353 40.9688 7.125C40.9688 8.10647 40.1707 8.90625 39.1875 8.90625C38.2043 8.90625 37.4062 8.10647 37.4062 7.125C37.4062 6.14353 38.2043 5.34375 39.1875 5.34375ZM21.375 14.25C22.3582 14.25 23.1562 15.0498 23.1562 16.0312C23.1562 17.0127 22.3582 17.8125 21.375 17.8125C20.3918 17.8125 19.5938 17.0127 19.5938 16.0312C19.5938 15.0498 20.3918 14.25 21.375 14.25ZM7.125 32.0625C8.10825 32.0625 8.90625 32.8623 8.90625 33.8437C8.90625 34.8252 8.10825 35.625 7.125 35.625C6.14175 35.625 5.34375 34.8252 5.34375 33.8437C5.34375 32.8623 6.14175 32.0625 7.125 32.0625ZM7.125 57C6.14175 57 5.34375 56.2002 5.34375 55.2187C5.34375 54.2373 6.14175 53.4375 7.125 53.4375C8.10825 53.4375 8.90625 54.2373 8.90625 55.2187C8.90625 56.2002 8.10825 57 7.125 57ZM8.90625 50.2027V38.858C10.4987 38.2897 11.7295 36.9983 12.2194 35.3703L22.0376 34.8787L24.5207 53.9202C23.4982 54.3833 22.6628 55.1635 22.1053 56.129L12.3833 54.3637C12.068 52.4257 10.7142 50.8476 8.90625 50.2027ZM24.9375 58.7812C24.9375 57.7998 25.7355 57 26.7188 57C27.702 57 28.5 57.7998 28.5 58.7812C28.5 59.7627 27.702 60.5625 26.7188 60.5625C25.7355 60.5625 24.9375 59.7627 24.9375 58.7812ZM30.2349 62.773C30.4825 62.5557 30.707 62.3152 30.91 62.0552L52.4186 69.2247L55.5946 79.4544C55.1528 79.7857 54.761 80.1758 54.4403 80.6247L39.1537 76.2571C38.9773 73.4712 36.6759 71.25 33.8438 71.25C33.7725 71.25 33.7048 71.2678 33.6353 71.2714L30.2349 62.773ZM33.8438 78.375C32.8605 78.375 32.0625 77.5752 32.0625 76.5937C32.0625 75.6123 32.8605 74.8125 33.8438 74.8125C34.827 74.8125 35.625 75.6123 35.625 76.5937C35.625 77.5752 34.827 78.375 33.8438 78.375ZM58.7812 108.656C57.798 108.656 57 107.856 57 106.875C57 105.894 57.798 105.094 58.7812 105.094C59.7645 105.094 60.5625 105.894 60.5625 106.875C60.5625 107.856 59.7645 108.656 58.7812 108.656ZM58.7812 85.5C57.798 85.5 57 84.7002 57 83.7187C57 82.7373 57.798 81.9375 58.7812 81.9375C59.7645 81.9375 60.5625 82.7373 60.5625 83.7187C60.5625 84.7002 59.7645 85.5 58.7812 85.5ZM58.8418 77.9047L56.5778 70.6123L60.803 72.0213L58.8418 77.9047ZM67.7872 62.3331C69.8927 62.2939 71.6953 61.0327 72.5289 59.2283L101.716 61.8824C101.763 62.0605 101.816 62.2351 101.879 62.4061L88.2111 73.7954C87.4131 73.3216 86.4939 73.0312 85.5 73.0312C83.7936 73.0312 82.2866 73.8506 81.3087 75.1011L65.3095 69.768L67.7872 62.3331ZM85.5 108.656C84.5167 108.656 83.7188 107.856 83.7188 106.875C83.7188 105.894 84.5167 105.094 85.5 105.094C86.4833 105.094 87.2812 105.894 87.2812 106.875C87.2812 107.856 86.4833 108.656 85.5 108.656ZM85.5 80.1562C84.5167 80.1562 83.7188 79.3565 83.7188 78.375C83.7188 77.3935 84.5167 76.5937 85.5 76.5937C86.4833 76.5937 87.2812 77.3935 87.2812 78.375C87.2812 79.3565 86.4833 80.1562 85.5 80.1562ZM106.875 62.3437C105.892 62.3437 105.094 61.544 105.094 60.5625C105.094 59.581 105.892 58.7812 106.875 58.7812C107.858 58.7812 108.656 59.581 108.656 60.5625C108.656 61.544 107.858 62.3437 106.875 62.3437Z" fill="#3F3A34"/>
<path d="M8.90625 1.78125H5.34375V5.34375H8.90625V1.78125Z" fill="#E56565"/>
<path d="M8.90625 8.90625H5.34375V12.4688H8.90625V8.90625Z" fill="#E56565"/>
<path d="M12.4688 5.34375H8.90625V8.90625H12.4688V5.34375Z" fill="#E56565"/>
<path d="M5.34375 5.34375H1.78125V8.90625H5.34375V5.34375Z" fill="#E56565"/>
<path d="M97.9688 83.7188H94.4062V87.2812H97.9688V83.7188Z" fill="#E56565"/>
<path d="M97.9688 90.8438H94.4062V94.4062H97.9688V90.8438Z" fill="#E56565"/>
<path d="M101.531 87.2812H97.9688V90.8438H101.531V87.2812Z" fill="#E56565"/>
<path d="M94.4062 87.2812H90.8438V90.8438H94.4062V87.2812Z" fill="#E56565"/>
<path d="M108.656 8.90625H105.094V12.4688H108.656V8.90625Z" fill="#E56565"/>
<path d="M108.656 16.0312H105.094V19.5938H108.656V16.0312Z" fill="#E56565"/>
<path d="M112.219 12.4688H108.656V16.0312H112.219V12.4688Z" fill="#E56565"/>
<path d="M105.094 12.4688H101.531V16.0312H105.094V12.4688Z" fill="#E56565"/>
<path d="M26.7188 87.2812H23.1562V90.8438H26.7188V87.2812Z" fill="#E56565"/>
<path d="M26.7188 94.4062H23.1562V97.9688H26.7188V94.4062Z" fill="#E56565"/>
<path d="M30.2812 90.8438H26.7188V94.4062H30.2812V90.8438Z" fill="#E56565"/>
<path d="M23.1562 90.8438H19.5938V94.4062H23.1562V90.8438Z" fill="#E56565"/>
<path d="M16.0312 67.6875H12.4688V71.25H16.0312V67.6875Z" fill="#E56565"/>
<path d="M16.0312 74.8125H12.4688V78.375H16.0312V74.8125Z" fill="#E56565"/>
<path d="M19.5938 71.25H16.0312V74.8125H19.5938V71.25Z" fill="#E56565"/>
<path d="M12.4688 71.25H8.90625V74.8125H12.4688V71.25Z" fill="#E56565"/>
</g>
</svg>
