<svg width="229" height="68" viewBox="0 0 229 68" fill="none" xmlns="http://www.w3.org/2000/svg">
<path d="M227.481 59.8414C227.481 60.6954 227.313 61.541 226.986 62.3299C226.659 63.1188 226.179 63.8354 225.575 64.439C224.971 65.0425 224.253 65.5211 223.464 65.8473C222.674 66.1734 221.828 66.3409 220.974 66.34H8.02635C6.3004 66.3418 4.64439 65.6582 3.42253 64.4395C2.20066 63.2208 1.51299 61.5669 1.51074 59.8414V8.0171C1.51299 6.29083 2.20039 4.636 3.42201 3.41598C4.64363 2.19595 6.29961 1.51046 8.02635 1.51001H220.972C221.827 1.51001 222.673 1.67833 223.463 2.00537C224.253 2.3324 224.97 2.81173 225.574 3.416C226.178 4.02026 226.658 4.73761 226.985 5.52707C227.312 6.31654 227.48 7.16266 227.48 8.0171L227.481 59.8414Z" fill="white"/>
<path d="M220.974 67.8519H8.02613C5.89995 67.8515 3.86079 67.0078 2.35609 65.506C0.851384 64.0043 0.00404553 61.9671 0 59.8415L0 8.01891C0.00314537 5.89225 0.849925 3.85366 2.35458 2.35036C3.85924 0.847056 5.8989 0.00179498 8.02613 0L220.972 0C223.099 0.00269064 225.138 0.84824 226.643 2.35135C228.147 3.85446 228.994 5.89252 228.998 8.01891V59.8415C229.002 64.2599 225.395 67.8519 220.974 67.8519Z" fill="#A6A6A6"/>
<path d="M227.481 59.8414C227.481 60.6954 227.313 61.541 226.986 62.3299C226.659 63.1188 226.179 63.8354 225.575 64.439C224.971 65.0425 224.253 65.5211 223.464 65.8473C222.674 66.1734 221.828 66.3409 220.974 66.34H8.02635C6.3004 66.3418 4.64439 65.6582 3.42253 64.4395C2.20066 63.2208 1.51299 61.5669 1.51074 59.8414V8.0171C1.51299 6.29083 2.20039 4.636 3.42201 3.41598C4.64363 2.19595 6.29961 1.51046 8.02635 1.51001H220.972C221.827 1.51001 222.673 1.67833 223.463 2.00537C224.253 2.3324 224.97 2.81173 225.574 3.416C226.178 4.02026 226.658 4.73761 226.985 5.52707C227.312 6.31654 227.48 7.16266 227.48 8.0171L227.481 59.8414Z" fill="black"/>
<path d="M51.1338 33.5688C51.0845 28.1002 55.6127 25.4396 55.8198 25.3158C53.2553 21.5778 49.2804 21.0671 47.8836 21.0263C44.5452 20.6751 41.3069 23.0234 39.6063 23.0234C37.8717 23.0234 35.2529 21.0603 32.4305 21.118C28.7984 21.174 25.4006 23.2763 23.5371 26.5408C19.6912 33.1972 22.5595 42.9791 26.2441 48.3595C28.0873 50.9963 30.2411 53.9368 33.0601 53.8333C35.8181 53.7213 36.8483 52.0771 40.1765 52.0771C43.4742 52.0771 44.4416 53.8333 47.3167 53.7671C50.2767 53.7213 52.1402 51.1202 53.9189 48.4613C56.0489 45.4428 56.9043 42.4667 56.9382 42.314C56.8703 42.2902 51.1915 40.1217 51.1338 33.5688ZM45.7027 17.4869C47.186 15.6323 48.201 13.1092 47.9192 10.5488C45.7723 10.6438 43.0873 12.0335 41.5411 13.8473C40.1732 15.4457 38.9512 18.0655 39.2668 20.5292C41.6786 20.7091 44.1548 19.3126 45.7027 17.4869Z" fill="white"/>
<path d="M220.974 0H106.913L151.588 67.8519H220.974C223.101 67.8501 225.14 67.0053 226.644 65.5028C228.149 64.0002 228.996 61.9625 229 59.8364V8.01891C228.996 5.89238 228.149 3.85406 226.645 2.35085C225.14 0.847648 223.101 0.00224298 220.974 0Z" fill="url(#paint0_linear_320_6103)"/>
<path d="M91.0809 53.4548H87.2265L85.1152 46.8222H77.7764L75.7652 53.4548H72.0127L79.2853 30.8743H83.7761L91.0809 53.4548ZM84.4787 44.0395L82.5694 38.1432C82.3674 37.5409 81.9872 36.1224 81.4305 33.8895H81.3626C81.1386 34.8498 80.7805 36.2683 80.29 38.1432L78.4129 44.0395H84.4787ZM109.747 45.1135C109.747 47.8827 108.995 50.0715 107.49 51.6783C106.142 53.1087 104.467 53.823 102.469 53.823C100.312 53.823 98.7608 53.0544 97.8188 51.5137V60.057H94.2004V42.5243C94.2004 40.7851 94.1545 39.0018 94.0663 37.1727H97.2486L97.4505 39.7535H97.5184C98.7251 37.809 100.556 36.8367 103.014 36.8367C104.935 36.8367 106.539 37.5952 107.822 39.1138C109.104 40.6358 109.747 42.6346 109.747 45.1135ZM106.061 45.2459C106.061 43.6611 105.704 42.3546 104.988 41.3247C104.205 40.254 103.155 39.7178 101.838 39.7178C100.945 39.7178 100.134 40.0165 99.4091 40.6052C98.6827 41.1991 98.2075 41.9745 97.9852 42.9349C97.8859 43.2941 97.8295 43.6637 97.8171 44.0361V46.7526C97.8171 47.9353 98.1803 48.9347 98.9067 49.7525C99.6332 50.5669 100.577 50.9759 101.738 50.9759C103.101 50.9759 104.161 50.4482 104.92 49.4013C105.68 48.351 106.061 46.9664 106.061 45.2459ZM128.479 45.1135C128.479 47.8827 127.727 50.0715 126.222 51.6783C124.872 53.1087 123.199 53.823 121.2 53.823C119.042 53.823 117.491 53.0544 116.549 51.5137V60.057H112.931V42.5243C112.931 40.7851 112.885 39.0018 112.797 37.1727H115.979L116.181 39.7535H116.249C117.454 37.809 119.285 36.8367 121.744 36.8367C123.664 36.8367 125.268 37.5952 126.554 39.1138C127.834 40.6358 128.479 42.6346 128.479 45.1135ZM124.791 45.2459C124.791 43.6611 124.433 42.3546 123.717 41.3247C122.934 40.254 121.887 39.7178 120.57 39.7178C119.677 39.7178 118.866 40.0165 118.138 40.6052C117.411 41.1991 116.938 41.9745 116.716 42.9349C116.605 43.3828 116.546 43.7477 116.546 44.0361V46.7526C116.546 47.9353 116.911 48.9347 117.634 49.7525C118.36 50.5653 119.304 50.9759 120.468 50.9759C121.833 50.9759 122.893 50.4482 123.65 49.4013C124.411 48.351 124.791 46.9664 124.791 45.2459ZM149.423 47.1208C149.423 49.0433 148.751 50.606 147.415 51.8124C145.945 53.1291 143.893 53.7891 141.262 53.7891C138.832 53.7891 136.884 53.3208 135.414 52.3825L136.251 49.3673C137.837 50.3073 139.58 50.7757 141.478 50.7757C142.843 50.7757 143.903 50.4668 144.66 49.8543C145.419 49.2401 145.802 48.4188 145.802 47.394C145.802 46.476 145.485 45.7074 144.862 45.0813C144.236 44.4569 143.201 43.8749 141.746 43.3404C137.792 41.8659 135.813 39.7094 135.813 36.8724C135.813 35.0195 136.512 33.5026 137.907 32.3165C139.302 31.1322 141.152 30.54 143.454 30.54C145.509 30.54 147.221 30.8981 148.581 31.6124L147.673 34.5614C146.393 33.8691 144.949 33.5229 143.333 33.5229C142.057 33.5229 141.055 33.8369 140.339 34.4613C139.737 35.0195 139.431 35.6999 139.431 36.5076C139.431 37.3984 139.779 38.1381 140.472 38.7184C141.072 39.2529 142.169 39.8349 143.754 40.4593C145.699 41.2432 147.128 42.1561 148.043 43.2047C148.964 44.2533 149.423 45.5615 149.423 47.1208ZM161.417 39.8875H157.428V47.7927C157.428 49.8034 158.131 50.8062 159.54 50.8062C160.186 50.8062 160.723 50.7519 161.147 50.6382L161.247 53.3853C160.534 53.6517 159.596 53.7857 158.433 53.7857C157.004 53.7857 155.887 53.3496 155.081 52.4775C154.278 51.6054 153.874 50.1445 153.874 48.088V39.8807H151.498V37.1659H153.874V34.1847L157.428 33.1123V37.1659H161.417V39.8875ZM179.377 45.1797C179.377 47.6825 178.661 49.7372 177.231 51.3441C175.736 52.9984 173.747 53.823 171.267 53.823C168.874 53.823 166.972 53.0306 165.553 51.4476C164.134 49.8611 163.425 47.8623 163.425 45.4512C163.425 42.9281 164.158 40.8615 165.619 39.2546C167.084 37.6461 169.056 36.8418 171.536 36.8418C173.925 36.8418 175.845 37.6359 177.298 39.2207C178.686 40.758 179.377 42.7432 179.377 45.1797ZM175.626 45.2629C175.626 43.7714 175.303 42.492 174.657 41.4214C173.898 40.1285 172.812 39.482 171.405 39.482C169.956 39.482 168.844 40.1285 168.087 41.4214C167.439 42.492 167.116 43.7935 167.116 45.3307C167.116 46.8239 167.439 48.1066 168.087 49.1739C168.869 50.4668 169.961 51.1133 171.374 51.1133C172.758 51.1133 173.842 50.4533 174.626 49.1417C175.292 48.0456 175.626 46.7577 175.626 45.2629ZM191.144 40.3541C190.767 40.2862 190.385 40.2527 190.003 40.254C188.73 40.254 187.746 40.7325 187.053 41.6963C186.452 42.5446 186.15 43.617 186.15 44.9116V53.4548H182.532V42.3003C182.535 40.5911 182.5 38.882 182.427 37.1744H185.578L185.711 40.2896H185.811C186.194 39.219 186.795 38.3553 187.62 37.7089C188.375 37.144 189.292 36.8381 190.236 36.8367C190.57 36.8367 190.872 36.8605 191.14 36.9029L191.144 40.3541ZM207.326 44.5434C207.336 45.0934 207.291 45.6429 207.194 46.1842H196.339C196.379 47.7927 196.906 49.0246 197.914 49.873C198.829 50.6297 200.011 51.0098 201.464 51.0098C203.072 51.0098 204.538 50.7553 205.857 50.2412L206.424 52.7507C204.882 53.4226 203.063 53.7569 200.964 53.7569C198.438 53.7569 196.456 53.0137 195.013 51.5307C193.574 50.046 192.853 48.0506 192.853 45.5513C192.853 43.0978 193.523 41.0532 194.866 39.4226C196.271 37.6817 198.17 36.8113 200.56 36.8113C202.907 36.8113 204.684 37.6817 205.891 39.4226C206.846 40.8021 207.326 42.5124 207.326 44.5434ZM203.876 43.6051C203.902 42.5311 203.664 41.6063 203.173 40.8241C202.547 39.8162 201.583 39.314 200.292 39.314C199.109 39.314 198.145 39.8044 197.411 40.7885C196.809 41.5707 196.451 42.5107 196.34 43.6017L203.876 43.6051Z" fill="white"/>
<path d="M76.7327 22.8908C75.7262 22.8908 74.8556 22.8416 74.1309 22.7585V11.8415C75.1445 11.6849 76.1687 11.6078 77.1943 11.6107C81.344 11.6107 83.2551 13.6519 83.2551 16.9793C83.2551 20.8174 80.9978 22.8908 76.7327 22.8908ZM77.3403 13.0105C76.7802 13.0105 76.3033 13.0445 75.9078 13.1259V21.4248C76.1217 21.4587 76.5324 21.474 77.1095 21.474C79.8284 21.474 81.3763 19.9266 81.3763 17.0285C81.3763 14.4443 79.9761 13.0105 77.3403 13.0105ZM89.2106 22.9739C86.8718 22.9739 85.3562 21.228 85.3562 18.8576C85.3562 16.3871 86.9041 14.6259 89.343 14.6259C91.6478 14.6259 93.1974 16.2887 93.1974 18.7269C93.1974 21.228 91.6003 22.9739 89.2106 22.9739ZM89.2785 15.9256C87.9937 15.9256 87.1706 17.1269 87.1706 18.8067C87.1706 20.4543 88.0107 21.6556 89.2615 21.6556C90.5124 21.6556 91.3525 20.3711 91.3525 18.7728C91.3525 17.1439 90.5293 15.9256 89.2785 15.9256ZM106.534 14.7905L104.031 22.7924H102.4L101.363 19.3174C101.105 18.4674 100.89 17.6049 100.719 16.7332H100.685C100.555 17.6054 100.307 18.4792 100.044 19.3174L98.9407 22.7924H97.2927L94.937 14.7905H96.7649L97.6712 18.5946C97.8851 19.5007 98.065 20.3558 98.2143 21.1635H98.2483C98.379 20.4899 98.5928 19.6483 98.9068 18.6116L100.044 14.7921H101.493L102.581 18.5301C102.844 19.4362 103.058 20.3253 103.224 21.1652H103.272C103.387 20.3423 103.569 19.4684 103.815 18.5301L104.788 14.7921L106.534 14.7905ZM115.75 22.7924H113.971V18.1976C113.971 16.7825 113.428 16.0732 112.357 16.0732C111.303 16.0732 110.579 16.9793 110.579 18.033V22.7924H108.8V17.0777C108.8 16.3701 108.783 15.6117 108.734 14.7888H110.298L110.382 16.024H110.431C110.909 15.1688 111.88 14.6259 112.968 14.6259C114.648 14.6259 115.752 15.9103 115.752 18.0007L115.75 22.7924ZM120.655 22.7924H118.875V11.1187H120.655V22.7924ZM127.14 22.9739C124.803 22.9739 123.286 21.228 123.286 18.8576C123.286 16.3871 124.833 14.6259 127.271 14.6259C129.577 14.6259 131.125 16.2887 131.125 18.7269C131.127 21.228 129.528 22.9739 127.14 22.9739ZM127.206 15.9256C125.921 15.9256 125.098 17.1269 125.098 18.8067C125.098 20.4543 125.94 21.6556 127.187 21.6556C128.44 21.6556 129.278 20.3711 129.278 18.7728C129.28 17.1439 128.459 15.9256 127.206 15.9256ZM138.138 22.7924L138.009 21.8711H137.961C137.418 22.6125 136.626 22.9739 135.621 22.9739C134.187 22.9739 133.168 21.9695 133.168 20.6188C133.168 18.6438 134.881 17.6224 137.846 17.6224V17.4747C137.846 16.421 137.288 15.8933 136.184 15.8933C135.395 15.8933 134.703 16.0919 134.093 16.4872L133.732 15.3181C134.472 14.8566 135.395 14.6259 136.48 14.6259C138.571 14.6259 139.626 15.7288 139.626 17.9363V20.8835C139.626 21.6912 139.662 22.3173 139.742 22.7941L138.138 22.7924ZM137.893 18.8067C135.918 18.8067 134.927 19.2852 134.927 20.4203C134.927 21.2602 135.438 21.6708 136.147 21.6708C137.052 21.6708 137.893 20.9802 137.893 20.0419V18.8067ZM148.263 22.7924L148.18 21.5079H148.131C147.62 22.4785 146.761 22.9739 145.562 22.9739C143.632 22.9739 142.203 21.2772 142.203 18.8898C142.203 16.3871 143.684 14.6242 145.707 14.6242C146.778 14.6242 147.537 14.9856 147.965 15.7118H148V11.1187H149.781V20.6358C149.781 21.4095 149.799 22.134 149.847 22.7924H148.263ZM148 18.0839C148 16.964 147.259 16.0087 146.127 16.0087C144.808 16.0087 144.002 17.1778 144.002 18.8237C144.002 20.4373 144.838 21.5419 146.091 21.5419C147.209 21.5419 148 20.5696 148 19.4175V18.0839ZM161.069 22.9739C158.732 22.9739 157.216 21.228 157.216 18.8576C157.216 16.3871 158.764 14.6259 161.201 14.6259C163.508 14.6259 165.056 16.2887 165.056 18.7269C165.057 21.228 163.46 22.9739 161.069 22.9739ZM161.135 15.9256C159.852 15.9256 159.029 17.1269 159.029 18.8067C159.029 20.4543 159.869 21.6556 161.118 21.6556C162.371 21.6556 163.209 20.3711 163.209 18.7728C163.213 17.1439 162.389 15.9256 161.135 15.9256ZM174.621 22.7924H172.841V18.1976C172.841 16.7825 172.298 16.0732 171.227 16.0732C170.173 16.0732 169.45 16.9793 169.45 18.033V22.7924H167.669V17.0777C167.669 16.3701 167.652 15.6117 167.603 14.7888H169.168L169.251 16.024H169.3C169.777 15.1688 170.75 14.6242 171.836 14.6242C173.516 14.6242 174.621 15.9086 174.621 17.999V22.7924ZM186.588 16.1241H184.631V20.0097C184.631 20.9989 184.974 21.4927 185.667 21.4927C185.981 21.4927 186.244 21.4587 186.456 21.4095L186.505 22.7602C186.161 22.8925 185.699 22.9587 185.125 22.9587C183.723 22.9587 182.885 22.185 182.885 20.159V16.1241H181.717V14.7905H182.885V13.3244L184.631 12.7968V14.7888H186.588V16.1241ZM196.004 22.7924H194.227V18.2315C194.227 16.7994 193.686 16.0749 192.613 16.0749C191.692 16.0749 190.833 16.701 190.833 17.9685V22.7924H189.056V11.1187H190.833V15.9256H190.869C191.429 15.0534 192.24 14.6242 193.275 14.6242C194.969 14.6242 196.004 15.9409 196.004 18.033V22.7924ZM205.651 19.219H200.314C200.348 20.7342 201.351 21.5894 202.836 21.5894C203.625 21.5894 204.351 21.457 204.993 21.211L205.269 22.4463C204.513 22.7754 203.621 22.94 202.584 22.94C200.081 22.94 198.599 21.3586 198.599 18.9068C198.599 16.4533 200.117 14.6089 202.384 14.6089C204.429 14.6089 205.712 16.1241 205.712 18.413C205.724 18.6832 205.703 18.9537 205.651 19.219ZM204.02 17.9515C204.02 16.7163 203.397 15.8441 202.26 15.8441C201.239 15.8441 200.431 16.7332 200.315 17.9515H204.02Z" fill="white"/>
<defs>
<linearGradient id="paint0_linear_320_6103" x1="167.954" y1="68.0321" x2="167.954" y2="-176.675" gradientUnits="userSpaceOnUse">
<stop stop-color="#1A1A1A" stop-opacity="0.1"/>
<stop offset="0.123" stop-color="#212121" stop-opacity="0.151"/>
<stop offset="0.308" stop-color="#353535" stop-opacity="0.227"/>
<stop offset="0.532" stop-color="#575757" stop-opacity="0.318"/>
<stop offset="0.783" stop-color="#858585" stop-opacity="0.421"/>
<stop offset="1" stop-color="#B3B3B3" stop-opacity="0.51"/>
</linearGradient>
</defs>
</svg>
