<svg width="230" height="68" viewBox="0 0 230 68" fill="none" xmlns="http://www.w3.org/2000/svg">
<path d="M221 68H8.5C3.74 68 0 64.26 0 59.5V8.5C0 3.74 3.74 0 8.5 0H221C225.76 0 229.5 3.74 229.5 8.5V59.5C229.5 64.26 225.76 68 221 68Z" fill="black"/>
<path d="M221 1.36C224.91 1.36 228.14 4.59 228.14 8.5V59.5C228.14 63.41 224.91 66.64 221 66.64H8.5C4.59 66.64 1.36 63.41 1.36 59.5V8.5C1.36 4.59 4.59 1.36 8.5 1.36H221ZM221 0H8.5C3.74 0 0 3.91 0 8.5V59.5C0 64.26 3.74 68 8.5 68H221C225.76 68 229.5 64.26 229.5 59.5V8.5C229.5 3.91 225.76 0 221 0Z" fill="#A6A6A6"/>
<path d="M80.5799 17.34C80.5799 18.7 80.2399 19.89 79.3899 20.74C78.3699 21.76 77.1799 22.27 75.6499 22.27C74.1199 22.27 72.9299 21.76 71.9099 20.74C70.8899 19.72 70.3799 18.53 70.3799 17C70.3799 15.47 70.8899 14.28 71.9099 13.26C72.9299 12.24 74.1199 11.73 75.6499 11.73C76.3299 11.73 77.0099 11.9 77.6899 12.24C78.3699 12.58 78.8799 12.92 79.2199 13.43L78.3699 14.28C77.6899 13.43 76.8399 13.09 75.6499 13.09C74.6299 13.09 73.6099 13.43 72.9299 14.28C72.0799 14.96 71.7399 15.98 71.7399 17.17C71.7399 18.36 72.0799 19.38 72.9299 20.06C73.7799 20.74 74.6299 21.25 75.6499 21.25C76.8399 21.25 77.6899 20.91 78.5399 20.06C79.0499 19.55 79.3899 18.87 79.3899 18.02H75.6499V16.66H80.5799V17.34ZM88.3999 13.09H83.8099V16.32H88.0599V17.51H83.8099V20.74H88.3999V22.1H82.4499V11.9H88.3999V13.09ZM94.0099 22.1H92.6499V13.09H89.7599V11.9H96.8999V13.09H94.0099V22.1ZM101.83 22.1V11.9H103.19V22.1H101.83ZM108.97 22.1H107.61V13.09H104.72V11.9H111.69V13.09H108.8V22.1H108.97ZM125.12 20.74C124.1 21.76 122.91 22.27 121.38 22.27C119.85 22.27 118.66 21.76 117.64 20.74C116.62 19.72 116.11 18.53 116.11 17C116.11 15.47 116.62 14.28 117.64 13.26C118.66 12.24 119.85 11.73 121.38 11.73C122.91 11.73 124.1 12.24 125.12 13.26C126.14 14.28 126.65 15.47 126.65 17C126.65 18.53 126.14 19.72 125.12 20.74ZM118.66 19.89C119.34 20.57 120.36 21.08 121.38 21.08C122.4 21.08 123.42 20.74 124.1 19.89C124.78 19.21 125.29 18.19 125.29 17C125.29 15.81 124.95 14.79 124.1 14.11C123.42 13.43 122.4 12.92 121.38 12.92C120.36 12.92 119.34 13.26 118.66 14.11C117.98 14.79 117.47 15.81 117.47 17C117.47 18.19 117.81 19.21 118.66 19.89ZM128.52 22.1V11.9H130.05L134.98 19.89V11.9H136.34V22.1H134.98L129.71 13.77V22.1H128.52Z" fill="white" stroke="white" stroke-width="1.18519" stroke-miterlimit="10"/>
<path d="M115.77 37.0601C111.69 37.0601 108.46 40.1201 108.46 44.3701C108.46 48.4501 111.69 51.6801 115.77 51.6801C119.85 51.6801 123.08 48.6201 123.08 44.3701C123.08 39.9501 119.85 37.0601 115.77 37.0601ZM115.77 48.6201C113.56 48.6201 111.69 46.7501 111.69 44.2001C111.69 41.6501 113.56 39.7801 115.77 39.7801C117.98 39.7801 119.85 41.4801 119.85 44.2001C119.85 46.7501 117.98 48.6201 115.77 48.6201ZM99.9601 37.0601C95.8801 37.0601 92.6501 40.1201 92.6501 44.3701C92.6501 48.4501 95.8801 51.6801 99.9601 51.6801C104.04 51.6801 107.27 48.6201 107.27 44.3701C107.27 39.9501 104.04 37.0601 99.9601 37.0601ZM99.9601 48.6201C97.7501 48.6201 95.8801 46.7501 95.8801 44.2001C95.8801 41.6501 97.7501 39.7801 99.9601 39.7801C102.17 39.7801 104.04 41.4801 104.04 44.2001C104.04 46.7501 102.17 48.6201 99.9601 48.6201ZM81.0901 39.2701V42.3301H88.4001C88.2301 44.0301 87.5501 45.3901 86.7001 46.2401C85.6801 47.2601 83.9801 48.4501 81.0901 48.4501C76.5001 48.4501 73.1001 44.8801 73.1001 40.2901C73.1001 35.7001 76.6701 32.1301 81.0901 32.1301C83.4701 32.1301 85.3401 33.1501 86.7001 34.3401L88.9101 32.1301C87.0401 30.4301 84.6601 29.0701 81.2601 29.0701C75.1401 29.0701 69.8701 34.1701 69.8701 40.2901C69.8701 46.4101 75.1401 51.5101 81.2601 51.5101C84.6601 51.5101 87.0401 50.4901 89.0801 48.2801C91.1201 46.2401 91.8001 43.3501 91.8001 41.1401C91.8001 40.4601 91.8001 39.7801 91.6301 39.2701H81.0901ZM158.27 41.6501C157.59 39.9501 155.89 37.0601 152.15 37.0601C148.41 37.0601 145.35 39.9501 145.35 44.3701C145.35 48.4501 148.41 51.6801 152.49 51.6801C155.72 51.6801 157.76 49.6401 158.44 48.4501L156.06 46.7501C155.21 47.9401 154.19 48.7901 152.49 48.7901C150.79 48.7901 149.77 48.1101 148.92 46.5801L158.61 42.5001L158.27 41.6501ZM148.41 44.0301C148.41 41.3101 150.62 39.7801 152.15 39.7801C153.34 39.7801 154.53 40.4601 154.87 41.3101L148.41 44.0301ZM140.42 51.0001H143.65V29.7501H140.42V51.0001ZM135.32 38.5901C134.47 37.7401 133.11 36.8901 131.41 36.8901C127.84 36.8901 124.44 40.1201 124.44 44.2001C124.44 48.2801 127.67 51.3401 131.41 51.3401C133.11 51.3401 134.47 50.4901 135.15 49.6401H135.32V50.6601C135.32 53.3801 133.79 54.9101 131.41 54.9101C129.54 54.9101 128.18 53.5501 127.84 52.3601L125.12 53.5501C125.97 55.4201 128.01 57.8001 131.58 57.8001C135.32 57.8001 138.38 55.5901 138.38 50.3201V37.4001H135.32V38.5901ZM131.58 48.6201C129.37 48.6201 127.5 46.7501 127.5 44.2001C127.5 41.6501 129.37 39.7801 131.58 39.7801C133.79 39.7801 135.49 41.6501 135.49 44.2001C135.49 46.7501 133.79 48.6201 131.58 48.6201ZM173.06 29.7501H165.41V51.0001H168.64V43.0101H173.06C176.63 43.0101 180.03 40.4601 180.03 36.3801C180.03 32.3001 176.63 29.7501 173.06 29.7501ZM173.23 39.9501H168.64V32.6401H173.23C175.61 32.6401 176.97 34.6801 176.97 36.2101C176.8 38.0801 175.44 39.9501 173.23 39.9501ZM192.78 36.8901C190.4 36.8901 188.02 37.9101 187.17 40.1201L190.06 41.3101C190.74 40.1201 191.76 39.7801 192.95 39.7801C194.65 39.7801 196.18 40.8001 196.35 42.5001V42.6701C195.84 42.3301 194.48 41.8201 193.12 41.8201C190.06 41.8201 187 43.5201 187 46.5801C187 49.4701 189.55 51.3401 192.27 51.3401C194.48 51.3401 195.5 50.3201 196.35 49.3001H196.52V51.0001H199.58V42.8401C199.24 39.1001 196.35 36.8901 192.78 36.8901ZM192.44 48.6201C191.42 48.6201 189.89 48.1101 189.89 46.7501C189.89 45.0501 191.76 44.5401 193.29 44.5401C194.65 44.5401 195.33 44.8801 196.18 45.2201C195.84 47.2601 194.14 48.6201 192.44 48.6201ZM210.29 37.4001L206.72 46.5801H206.55L202.81 37.4001H199.41L205.02 50.3201L201.79 57.4601H205.02L213.69 37.4001H210.29ZM181.73 51.0001H184.96V29.7501H181.73V51.0001Z" fill="white"/>
<path d="M17.6802 12.7498C17.1702 13.2598 17.0002 14.1098 17.0002 15.1298V52.6998C17.0002 53.7198 17.3402 54.5698 17.8502 55.0798L18.0202 55.2498L39.1002 34.1698V33.8298L17.6802 12.7498Z" fill="url(#paint0_linear_320_6113)"/>
<path d="M45.9002 41.3099L38.9302 34.3399V33.8299L45.9002 26.8599L46.0702 27.0299L54.4002 31.7899C56.7802 33.1499 56.7802 35.3599 54.4002 36.7199L45.9002 41.3099Z" fill="url(#paint1_linear_320_6113)"/>
<path d="M46.0702 41.14L38.9302 34L17.6802 55.25C18.5302 56.1 19.7202 56.1 21.2502 55.42L46.0702 41.14Z" fill="url(#paint2_linear_320_6113)"/>
<path d="M46.0702 26.86L21.2502 12.75C19.7202 11.9 18.5302 12.07 17.6802 12.92L38.9302 34L46.0702 26.86Z" fill="url(#paint3_linear_320_6113)"/>
<path opacity="0.2" d="M45.9002 40.97L21.2502 54.91C19.8902 55.76 18.7002 55.59 17.8502 54.91L17.6802 55.08L17.8502 55.25C18.7002 55.93 19.8902 56.1 21.2502 55.25L45.9002 40.97Z" fill="black"/>
<path opacity="0.12" d="M17.6802 54.91C17.1702 54.4 17.0002 53.55 17.0002 52.53V52.7C17.0002 53.72 17.3402 54.57 17.8502 55.08V54.91H17.6802ZM54.4002 36.21L45.9002 40.97L46.0702 41.14L54.4002 36.38C55.5902 35.7 56.1002 34.85 56.1002 34C56.1002 34.85 55.4202 35.53 54.4002 36.21Z" fill="black"/>
<path opacity="0.25" d="M21.2502 12.9199L54.4002 31.7899C55.4202 32.4699 56.1002 33.1499 56.1002 33.9999C56.1002 33.1499 55.5902 32.2999 54.4002 31.6199L21.2502 12.7499C18.8702 11.3899 17.0002 12.4099 17.0002 15.1299V15.2999C17.0002 12.7499 18.8702 11.5599 21.2502 12.9199Z" fill="white"/>
<defs>
<linearGradient id="paint0_linear_320_6113" x1="37.0602" y1="14.8068" x2="8.52914" y2="43.3362" gradientUnits="userSpaceOnUse">
<stop stop-color="#00A0FF"/>
<stop offset="0.007" stop-color="#00A1FF"/>
<stop offset="0.26" stop-color="#00BEFF"/>
<stop offset="0.512" stop-color="#00D2FF"/>
<stop offset="0.76" stop-color="#00DFFF"/>
<stop offset="1" stop-color="#00E3FF"/>
</linearGradient>
<linearGradient id="paint1_linear_320_6113" x1="57.518" y1="34.0016" x2="16.3831" y2="34.0016" gradientUnits="userSpaceOnUse">
<stop stop-color="#FFE000"/>
<stop offset="0.409" stop-color="#FFBD00"/>
<stop offset="0.775" stop-color="#FFA500"/>
<stop offset="1" stop-color="#FF9C00"/>
</linearGradient>
<linearGradient id="paint2_linear_320_6113" x1="42.2061" y1="37.9032" x2="3.51748" y2="76.5918" gradientUnits="userSpaceOnUse">
<stop stop-color="#FF3A44"/>
<stop offset="1" stop-color="#C31162"/>
</linearGradient>
<linearGradient id="paint3_linear_320_6113" x1="12.4051" y1="0.299195" x2="29.6822" y2="17.5763" gradientUnits="userSpaceOnUse">
<stop stop-color="#32A071"/>
<stop offset="0.069" stop-color="#2DA771"/>
<stop offset="0.476" stop-color="#15CF74"/>
<stop offset="0.801" stop-color="#06E775"/>
<stop offset="1" stop-color="#00F076"/>
</linearGradient>
</defs>
</svg>
