<svg width="65" height="55" viewBox="0 0 65 55" fill="none" xmlns="http://www.w3.org/2000/svg">
<path d="M42.9597 23.6196H36.9842V17.5818H30.9182V23.6196H24.9426V29.7488H30.9182V35.7865H36.9842V29.7488H42.9597V23.6196Z" fill="url(#paint0_linear_56_273)"/>
<path opacity="0.39" d="M40.0202 29.7488H42.9591V23.6196H36.9835V17.5824H30.9175V20.199C32.8082 24.2275 36.1867 27.446 40.0202 29.7488Z" fill="url(#paint1_linear_56_273)"/>
<path d="M41.974 40.0937C40.6159 40.7647 34.0227 40.0937 33.9512 40.8901C33.7445 43.1898 38.2372 43.9757 39.4504 44.2247C44.5026 45.2615 48.5299 42.2296 54.4332 36.62C60.5274 30.8294 65.2005 22.1775 64.6581 14.3751C63.8937 3.37336 54.1147 -2.21955 45.4125 0.822201C39.7164 2.81358 36.3055 6.04008 34.6367 8.01662C33.9702 8.80564 32.7728 8.80564 32.1069 8.01662C30.4388 6.04008 27.0272 2.81296 21.3312 0.822201C12.6296 -2.21955 2.9233 3.66933 1.06313 14.0649C-1.17862 26.5903 7.14873 40.9982 21.5225 49.9641C25.1175 52.2063 36.0859 56.2607 41.6151 54.6184C45.2235 53.5471 54.3666 46.2464 53.3692 45.243C50.8615 42.7196 44.8811 49.0403 40.3982 48.732C36.1954 48.4423 33.4259 47.6705 31.9932 45.5476C29.6652 42.0974 30.1397 37.5678 29.0121 37.9491C26.3008 37.0328 28.1359 44.0647 25.8379 42.6627C16.131 36.7424 10.4814 27.0858 11.9814 18.7032C13.2129 11.8208 19.6391 7.92147 25.4 9.93571C28.77 11.1134 30.9322 12.9447 32.1418 14.2552C32.8108 14.9793 33.9322 14.9793 34.6012 14.2552C35.8114 12.9453 37.9736 11.114 41.343 9.93571C47.1039 7.92147 53.5301 11.8208 54.7622 18.7032C55.7211 24.0601 53.7502 29.9341 49.6752 35.0241C47.922 34.3494 44.0286 32.0305 42.8943 33.8038C42.2082 34.8777 44.5472 35.6315 44.8383 36.4761C45.2694 37.7211 43.0068 39.5839 41.974 40.0937Z" fill="url(#paint2_linear_56_273)"/>
<path opacity="0.48" d="M41.3332 51.5816C45.1765 50.9632 49.3224 46.7969 53.4262 45.3425C53.4139 45.3048 53.3968 45.2702 53.3693 45.2424C50.8615 42.719 44.8811 49.0398 40.3982 48.7315C36.1954 48.4417 33.426 47.6699 31.9932 45.547C29.6653 42.0968 30.1398 37.5673 29.0122 37.9485C26.3008 37.0322 28.1359 44.0641 25.8379 42.6622C16.131 36.7412 10.4814 27.0852 11.9814 18.7026C13.213 11.8202 19.6392 7.92087 25.4001 9.93511C26.9044 10.4609 28.1555 11.1183 29.2011 11.8004C24.9421 8.61041 20.7172 5.93135 15.2878 7.32278C11.7692 8.22424 8.34058 12 7.56642 15.604C3.35811 35.2033 27.0358 53.882 41.3332 51.5816Z" fill="url(#paint3_linear_56_273)"/>
<path opacity="0.48" d="M64.658 14.3751C63.8936 3.37336 54.1146 -2.21955 45.4124 0.822201C42.5066 1.83797 40.1988 3.17502 38.4101 4.50405C38.4395 4.69435 45.786 1.8324 50.1662 2.99708C58.8176 5.29739 60.7927 13.4402 59.5862 21.2148C58.5235 28.0645 50.9629 39.3201 42.1525 42.4947C40.3755 43.1348 36.2106 42.2877 34.6011 40.5781C34.2067 40.643 33.964 40.7406 33.9505 40.8895C33.7438 43.1892 38.2365 43.9751 39.4497 44.2241C44.5019 45.2609 48.5292 42.229 54.4326 36.6194C60.5273 30.8294 65.1998 22.1775 64.658 14.3751Z" fill="#009D6D"/>
<defs>
<linearGradient id="paint0_linear_56_273" x1="27.9303" y1="32.7677" x2="40.0967" y2="20.7267" gradientUnits="userSpaceOnUse">
<stop stop-color="#0076C1"/>
<stop offset="0.2714" stop-color="#1897D9"/>
<stop offset="0.5593" stop-color="#2CB3EE"/>
<stop offset="0.8119" stop-color="#38C4FB"/>
<stop offset="1" stop-color="#3CCAFF"/>
</linearGradient>
<linearGradient id="paint1_linear_56_273" x1="27.9302" y1="32.7676" x2="40.0966" y2="20.7267" gradientUnits="userSpaceOnUse">
<stop stop-color="#0076C1"/>
<stop offset="0.2714" stop-color="#1897D9"/>
<stop offset="0.5593" stop-color="#2CB3EE"/>
<stop offset="0.8119" stop-color="#38C4FB"/>
<stop offset="1" stop-color="#3CCAFF"/>
</linearGradient>
<linearGradient id="paint2_linear_56_273" x1="8.24612" y1="46.9511" x2="56.5187" y2="-0.823903" gradientUnits="userSpaceOnUse">
<stop stop-color="#009D6D"/>
<stop offset="1" stop-color="#79E283"/>
</linearGradient>
<linearGradient id="paint3_linear_56_273" x1="12.0997" y1="47.9094" x2="56.6087" y2="3.85923" gradientUnits="userSpaceOnUse">
<stop stop-color="#009D6D"/>
<stop offset="1" stop-color="#79E283"/>
</linearGradient>
</defs>
</svg>
