<svg width="150" height="150" viewBox="0 0 150 150" fill="none" xmlns="http://www.w3.org/2000/svg">
<path d="M91.4062 77.3438H58.5938V105.469H91.4062V77.3438Z" fill="#F0A5A5"/>
<path d="M60.9375 105.469H91.4062V77.3438H91.3174C90.7265 84.9962 87.2694 92.1437 81.6373 97.3578C76.0051 102.572 68.6127 105.469 60.9375 105.469Z" fill="#CC8C8C"/>
<path d="M136.963 119.789C135.954 115.498 133.754 111.579 130.618 108.481C127.482 105.384 123.536 103.234 119.233 102.277L91.4062 96.0938L90.2529 97.0823C86.005 100.723 80.5948 102.725 75 102.725C69.4052 102.725 63.995 100.723 59.7471 97.0823L58.5938 96.0938L30.767 102.277C26.464 103.234 22.5179 105.384 19.3818 108.481C16.2456 111.579 14.0464 115.498 13.0368 119.789L7.03125 145.312H142.969L136.963 119.789Z" fill="#7DB6D6"/>
<path d="M119.233 102.277C123.536 103.234 127.482 105.384 130.618 108.481C133.754 111.579 135.954 115.498 136.963 119.789L142.969 145.312H96.0938L103.087 98.6895L119.233 102.277Z" fill="#5CA4CC"/>
<path d="M119.531 117.187L109.815 100.185L119.233 102.277C123.536 103.234 127.482 105.384 130.618 108.481C133.754 111.579 135.954 115.498 136.963 119.789L142.969 145.312H105.469L110.156 121.875L119.531 117.187Z" fill="#CBE2EF"/>
<path d="M136.628 118.537C132.185 126.646 125.642 133.41 117.686 138.12C109.729 142.831 100.653 145.315 91.4062 145.312H142.969L136.963 119.789C136.864 119.366 136.75 118.95 136.628 118.537Z" fill="#ADC0CB"/>
<path d="M106.458 44.5313C107.56 44.5312 108.65 44.7481 109.667 45.1695C110.685 45.5909 111.609 46.2086 112.388 46.9873C113.166 47.7659 113.784 48.6903 114.205 49.7077C114.627 50.725 114.844 51.8154 114.844 52.9166C114.844 54.5925 114.342 56.2299 113.402 57.6177C112.462 59.0054 111.129 60.0798 109.573 60.7022L91.4062 67.9688V44.5313H106.458Z" fill="#F0A5A5"/>
<path d="M43.5416 44.5313C42.4404 44.5312 41.35 44.7481 40.3327 45.1695C39.3153 45.5909 38.3909 46.2086 37.6123 46.9873C36.8336 47.7659 36.2159 48.6903 35.7945 49.7077C35.3731 50.725 35.1562 51.8154 35.1563 52.9166C35.1563 54.5925 35.6584 56.2299 36.598 57.6177C37.5375 59.0054 38.8713 60.0798 40.4273 60.7022L58.5938 67.9688V44.5313H43.5416Z" fill="#F0A5A5"/>
<path d="M101.134 12.0709C99.5358 10.4732 97.6389 9.20572 95.5513 8.34101C93.4637 7.4763 91.2262 7.03124 88.9666 7.03125H61.0336C58.774 7.03124 56.5365 7.4763 54.4489 8.34101C52.3613 9.20572 50.4644 10.4732 48.8667 12.0709C46.8198 14.1178 45.3224 16.6479 44.5131 19.4272C43.7038 22.2064 43.6087 25.1449 44.2367 27.9706L46.8751 39.8438H103.125L105.764 27.9706C106.391 25.1449 106.296 22.2064 105.487 19.4272C104.678 16.6479 103.18 14.1178 101.134 12.0709Z" fill="#D27676"/>
<path d="M66.4032 85.0851L61.7427 83.2543C57.3599 81.5325 53.5974 78.5305 50.9454 74.6394C48.2934 70.7483 46.875 66.1486 46.875 61.4397V39.2669C46.875 38.1704 47.2594 37.1085 47.9615 36.2661C51.2892 32.2727 55.4543 29.0599 60.1617 26.855C64.8691 24.6502 70.0037 23.5073 75.2019 23.5073H93.75C96.2364 23.5073 98.621 24.495 100.379 26.2532C102.137 28.0114 103.125 30.3959 103.125 32.8823V61.4067C103.125 66.107 101.712 70.6987 99.0688 74.5856C96.4258 78.4724 92.6753 81.4748 88.3042 83.2028L83.5896 85.0667C78.0698 87.2488 71.9276 87.2554 66.4032 85.0851Z" fill="#F9B7B7"/>
<path d="M77.3437 67.9687H73.8658C72.9685 67.9687 72.086 67.7394 71.3023 67.3024C70.5185 66.8655 69.8595 66.2355 69.3877 65.4721C68.916 64.7088 68.6472 63.8376 68.6069 62.9412C68.5666 62.0448 68.7561 61.1529 69.1574 60.3504L72.9036 52.8579L77.0962 54.9545L73.35 62.4469C73.3061 62.5348 73.2854 62.6325 73.2899 62.7306C73.2944 62.8288 73.3238 62.9242 73.3755 63.0077C73.4272 63.0913 73.4993 63.1603 73.5851 63.2081C73.6709 63.256 73.7676 63.2811 73.8658 63.2812H77.3437V67.9687Z" fill="#EA8383"/>
<path d="M103.125 42.1875H46.875V46.875H103.125V42.1875Z" fill="#7DB6D6"/>
<path d="M75.0001 79.6874C73.1549 79.6938 71.3449 79.183 69.7754 78.2129C68.2058 77.2428 66.9395 75.8523 66.12 74.1991L65.8726 73.7045L70.0651 71.6079L70.3126 72.1029C70.7478 72.9734 71.4169 73.7055 72.2448 74.2172C73.0727 74.7289 74.0267 74.9999 75 74.9999C75.9733 75 76.9273 74.729 77.7552 74.2174C78.5832 73.7057 79.2523 72.9736 79.6876 72.1032L79.9351 71.6079L84.1276 73.7045L83.8801 74.1994C83.0606 75.8526 81.7943 77.243 80.2247 78.213C78.6552 79.183 76.8452 79.6938 75.0001 79.6874Z" fill="#EA8383"/>
<path d="M63.2812 51.5625C67.1645 51.5625 70.3125 48.4145 70.3125 44.5312C70.3125 40.648 67.1645 37.5 63.2812 37.5C59.398 37.5 56.25 40.648 56.25 44.5312C56.25 48.4145 59.398 51.5625 63.2812 51.5625Z" fill="#CBE2EF"/>
<path d="M86.7188 51.5625C90.602 51.5625 93.75 48.4145 93.75 44.5312C93.75 40.648 90.602 37.5 86.7188 37.5C82.8355 37.5 79.6875 40.648 79.6875 44.5312C79.6875 48.4145 82.8355 51.5625 86.7188 51.5625Z" fill="#CBE2EF"/>
<path d="M30.767 102.277C26.464 103.234 22.5179 105.384 19.3818 108.481C16.2456 111.579 14.0464 115.498 13.0368 119.789L7.03125 145.312H53.9062L46.9128 98.6895L30.767 102.277Z" fill="#5CA4CC"/>
<path d="M30.4688 117.187L40.1846 100.185L30.767 102.277C26.464 103.234 22.5179 105.384 19.3818 108.481C16.2456 111.579 14.0464 115.498 13.0368 119.789L7.03125 145.312H44.5312L39.8438 121.875L30.4688 117.187Z" fill="#CBE2EF"/>
<path d="M77.3438 128.906V125.325L91.0049 114.075C99.2054 107.343 105.808 98.8737 110.336 89.2789C114.864 79.6841 117.204 69.2033 117.188 58.5938C117.185 56.7296 116.444 54.9424 115.126 53.6243C113.808 52.3061 112.021 51.5646 110.156 51.5625H103.125V56.25H110.156C110.778 56.2507 111.373 56.4979 111.813 56.9373C112.252 57.3766 112.499 57.9724 112.5 58.5938C112.516 68.5114 110.328 78.3086 106.095 87.2776C101.863 96.2466 95.6905 104.163 88.0249 110.456L75.0001 121.182L61.9753 110.456C54.3097 104.163 48.1376 96.2466 43.9048 87.2776C39.6721 78.3086 37.4845 68.5114 37.5001 58.5938C37.5008 57.9724 37.748 57.3766 38.1873 56.9373C38.6267 56.4979 39.2225 56.2507 39.8438 56.25H46.8751V51.5625H39.8438C37.9797 51.5646 36.1925 52.3061 34.8743 53.6243C33.5562 54.9424 32.8147 56.7296 32.8126 58.5938C32.7959 69.2033 35.1361 79.6841 39.6641 89.2789C44.1921 98.8737 50.7948 107.343 58.9952 114.075L72.6563 125.325V128.906C72.6612 133.256 74.3913 137.426 77.467 140.502C80.5427 143.578 84.7129 145.308 89.0626 145.312H103.125V140.625H89.0626C85.9557 140.621 82.977 139.386 80.7801 137.189C78.5832 134.992 77.3474 132.013 77.3438 128.906Z" fill="#6E6E6E"/>
<path d="M103.125 143.967V145.312H133.594V123.389C126.309 133.757 115.464 141.082 103.125 143.967Z" fill="#9BB1BA"/>
<path d="M62.4409 83.5289L66.4031 85.0854C71.9276 87.2557 78.0698 87.2491 83.5896 85.0669L88.3042 83.2031C92.6753 81.475 96.4259 78.4727 99.0688 74.5858C101.712 70.699 103.125 66.1073 103.125 61.407V45.4888C99.5378 54.4186 94.0356 62.453 87.0062 69.0256C79.9768 75.5981 71.5914 80.5489 62.4409 83.5289Z" fill="#D49C9C"/>
<path d="M75.0001 79.6876C76.8452 79.694 78.6551 79.1832 80.2247 78.2132C81.7943 77.2431 83.0606 75.8527 83.8801 74.1996L84.1276 73.7046L82.49 72.8857C79.3386 75.3417 75.9698 77.5049 72.4253 79.3486C73.2652 79.5729 74.1307 79.6868 75.0001 79.6876Z" fill="#C76F6F"/>
<path d="M138.743 81.3212C137.963 80.8021 137.033 80.557 136.099 80.6243C135.165 80.6916 134.28 81.0676 133.583 81.693L135.227 79.2258C135.535 78.7641 135.749 78.2463 135.857 77.702C135.964 77.1577 135.964 76.5975 135.855 76.0534C135.746 75.5093 135.531 74.9919 135.223 74.5309C134.914 74.0699 134.517 73.6742 134.056 73.3664C133.302 72.8645 132.408 72.6176 131.504 72.662C130.6 72.7065 129.734 73.0399 129.034 73.6133C129.505 72.8096 129.697 71.8726 129.58 70.9484C129.463 70.0243 129.043 69.1649 128.386 68.5044C127.729 67.8438 126.872 67.4193 125.948 67.297C125.025 67.1746 124.087 67.3614 123.281 67.8281C123.338 67.0804 123.196 66.3308 122.867 65.6564C122.539 64.9821 122.037 64.4074 121.413 63.9914C120.952 63.6836 120.434 63.4698 119.889 63.3621C119.345 63.2544 118.785 63.255 118.241 63.3638C117.697 63.4726 117.179 63.6875 116.718 63.9963C116.257 64.305 115.862 64.7016 115.554 65.1633L107.812 76.79V75C107.812 73.7568 107.319 72.5645 106.44 71.6855C105.56 70.8064 104.368 70.3125 103.125 70.3125C101.882 70.3125 100.69 70.8064 99.8104 71.6855C98.9314 72.5645 98.4375 73.7568 98.4375 75V82.8355C98.4375 85.3219 99.4252 87.7065 101.183 89.4646L102.723 91.0042C103.593 91.8747 104.284 92.9082 104.755 94.0456C105.226 95.1831 105.469 96.4022 105.469 97.6333V107.813H131.25V96.0658C132.019 96.151 132.797 96.0231 133.498 95.6961C134.2 95.3692 134.798 94.8557 135.227 94.2118L139.915 87.1806C140.223 86.7189 140.437 86.2011 140.544 85.6568C140.652 85.1124 140.651 84.5523 140.542 84.0082C140.434 83.4641 140.219 82.9467 139.91 82.4857C139.601 82.0247 139.205 81.629 138.743 81.3212Z" fill="#F9B7B7"/>
<path d="M118.625 69.7904L116.537 72.9215C115.819 73.9985 116.11 75.4536 117.187 76.1716L117.187 76.1716C118.264 76.8896 119.72 76.5986 120.438 75.5216L122.525 72.3905C123.243 71.3135 122.952 69.8584 121.875 69.1404C120.798 68.4224 119.343 68.7134 118.625 69.7904Z" fill="#F0A5A5"/>
<path d="M124.946 75.1884L122.859 78.3195C122.141 79.3965 122.432 80.8516 123.509 81.5696C124.586 82.2876 126.041 81.9966 126.759 80.9196L128.846 77.7884C129.564 76.7115 129.273 75.2563 128.196 74.5383C127.119 73.8203 125.664 74.1114 124.946 75.1884Z" fill="#F0A5A5"/>
<path d="M129.634 83.1429L127.546 86.274C126.828 87.351 127.119 88.8062 128.196 89.5242C129.273 90.2422 130.728 89.9511 131.446 88.8741L133.534 85.743C134.252 84.666 133.961 83.2109 132.884 82.4929C131.807 81.7749 130.352 82.0659 129.634 83.1429Z" fill="#F0A5A5"/>
<path d="M104.379 70.3124C103.347 68.525 102.934 66.447 103.203 64.4007C103.472 62.3543 104.409 60.454 105.868 58.9944C107.328 57.5348 109.228 56.5975 111.274 56.3279C113.321 56.0583 115.399 56.4715 117.186 57.5033C118.974 58.5351 120.371 60.1279 121.161 62.0347C121.951 63.9415 122.09 66.0557 121.556 68.0494C121.022 70.0432 119.845 71.805 118.208 73.0617C116.57 74.3183 114.564 74.9996 112.5 74.9999C110.853 75.0046 109.235 74.5734 107.808 73.7501C106.382 72.9269 105.199 71.7408 104.379 70.3124Z" fill="#575757"/>
<path d="M91.4062 145.312H103.125V143.967C99.2828 144.861 95.351 145.313 91.4062 145.312Z" fill="#5E5E5E"/>
<path d="M133.594 107.812H103.125V145.312H133.594V107.812Z" fill="#B6D0DB"/>
<path d="M133.594 107.812H103.125V121.875H133.594V107.812Z" fill="#A2C1CC"/>
<path d="M103.125 143.967V145.312H133.594V123.389C126.309 133.757 115.464 141.082 103.125 143.967Z" fill="#9BB1BA"/>
<path d="M116.351 57.0782C114.617 56.2952 112.685 56.0591 110.812 56.4011C108.94 56.7431 107.216 57.6471 105.87 58.9928C104.524 60.3385 103.62 62.0621 103.278 63.9343C102.936 65.8066 103.171 67.7387 103.954 69.4736C104.857 66.5554 106.458 63.9014 108.619 61.7415C110.779 59.5816 113.433 57.981 116.351 57.0782Z" fill="#4A4A4A"/>
<path d="M135.227 94.2118L139.915 87.1805C140.272 86.6441 140.502 86.0331 140.587 85.3941C140.672 84.7552 140.61 84.1052 140.405 83.4941C140.2 82.8829 139.859 82.3267 139.406 81.868C138.953 81.4093 138.401 81.0603 137.792 80.8477C135.149 87.6663 130.78 93.6818 125.114 98.3056C119.448 102.929 112.679 106.003 105.469 107.226V107.813H131.25V96.0658C132.019 96.151 132.797 96.0231 133.498 95.6961C134.2 95.3691 134.798 94.8557 135.227 94.2118Z" fill="#D49C9C"/>
</svg>
