<svg width="140" height="140" viewBox="0 0 140 140" fill="none" xmlns="http://www.w3.org/2000/svg">
<g opacity="0.6">
<path d="M114.023 105.684H25.9766C18.1836 105.684 11.8672 112 11.8672 119.793C11.8672 123.703 13.4531 127.203 15.9961 129.773C18.5391 132.316 22.0664 133.902 25.9766 133.902H114.023C121.816 133.902 128.133 127.586 128.133 119.793C128.133 115.883 126.547 112.355 124.004 109.813C121.461 107.242 117.934 105.684 114.023 105.684ZM26.5508 127.258C22.4219 127.258 19.0586 123.895 19.0586 119.766C19.0586 115.637 22.4219 112.273 26.5508 112.273C30.6797 112.273 34.043 115.637 34.043 119.766C34.043 123.922 30.707 127.258 26.5508 127.258ZM43.0391 120.148C43.0117 120.258 42.9844 120.395 42.9297 120.504C42.875 120.613 42.8203 120.723 42.7656 120.832C42.6836 120.941 42.6016 121.051 42.5195 121.133C42.4375 121.215 42.3281 121.297 42.2187 121.379C42.1094 121.461 42 121.516 41.8906 121.543C41.7812 121.598 41.6445 121.625 41.5352 121.652C41.3984 121.68 41.2891 121.68 41.1523 121.68C41.0156 121.68 40.9063 121.652 40.7695 121.652C40.6328 121.625 40.5234 121.598 40.4141 121.543C40.3047 121.488 40.1953 121.434 40.0859 121.379C39.9766 121.297 39.8945 121.215 39.7852 121.133C39.4297 120.777 39.2109 120.285 39.2109 119.793C39.2109 119.656 39.2109 119.547 39.2383 119.41C39.2656 119.273 39.293 119.164 39.3477 119.055C39.4023 118.945 39.457 118.836 39.5117 118.727C39.5938 118.617 39.6484 118.535 39.7578 118.426C39.8398 118.344 39.9492 118.262 40.0586 118.18C40.168 118.098 40.2773 118.043 40.3867 118.016C40.4961 117.961 40.6328 117.934 40.7422 117.906C40.9883 117.852 41.2344 117.852 41.4805 117.906C41.5898 117.934 41.7266 117.961 41.8359 118.016C41.9453 118.07 42.0547 118.125 42.1641 118.18C42.2734 118.262 42.3555 118.316 42.4648 118.426C42.5469 118.508 42.6289 118.617 42.7109 118.727C42.793 118.836 42.8477 118.945 42.875 119.055C42.9297 119.164 42.957 119.301 42.9844 119.41C43.0117 119.52 43.0117 119.656 43.0117 119.793C43.0664 119.902 43.0664 120.039 43.0391 120.148ZM49.4102 121.707C48.3437 121.707 47.4961 120.859 47.4961 119.793C47.4961 118.727 48.3437 117.879 49.4102 117.879C50.4766 117.879 51.3242 118.727 51.3242 119.793C51.3242 120.832 50.4492 121.707 49.4102 121.707ZM57.3125 121.707C56.2461 121.707 55.3984 120.859 55.3984 119.793C55.3984 118.727 56.2461 117.879 57.3125 117.879C58.3789 117.879 59.2266 118.727 59.2266 119.793C59.2266 120.832 58.3789 121.707 57.3125 121.707ZM65.2148 121.707C64.1484 121.707 63.3008 120.859 63.3008 119.793C63.3008 118.727 64.1484 117.879 65.2148 117.879C66.2812 117.879 67.1289 118.727 67.1289 119.793C67.1289 120.832 66.2812 121.707 65.2148 121.707ZM73.1172 121.707C72.0508 121.707 71.2031 120.859 71.2031 119.793C71.2031 118.727 72.0508 117.879 73.1172 117.879C74.1836 117.879 75.0312 118.727 75.0312 119.793C75.0312 120.832 74.1836 121.707 73.1172 121.707ZM81.0195 121.707C79.9531 121.707 79.1055 120.859 79.1055 119.793C79.1055 118.727 79.9531 117.879 81.0195 117.879C82.0859 117.879 82.9336 118.727 82.9336 119.793C82.9336 120.832 82.0859 121.707 81.0195 121.707ZM88.9219 121.707C87.8555 121.707 87.0078 120.859 87.0078 119.793C87.0078 118.727 87.8555 117.879 88.9219 117.879C89.9883 117.879 90.8359 118.727 90.8359 119.793C90.8359 120.832 89.9883 121.707 88.9219 121.707ZM100.707 120.148C100.68 120.258 100.652 120.395 100.598 120.504C100.543 120.613 100.488 120.723 100.434 120.832C100.352 120.941 100.297 121.023 100.188 121.133C99.832 121.488 99.3398 121.707 98.8477 121.707C98.7109 121.707 98.6016 121.68 98.4648 121.68C98.3555 121.652 98.2188 121.625 98.1094 121.57C98 121.516 97.8906 121.461 97.7812 121.406C97.6719 121.324 97.5898 121.242 97.4805 121.16C97.125 120.805 96.9336 120.313 96.9336 119.82C96.9336 119.328 97.1523 118.809 97.4805 118.453C97.5625 118.371 97.6719 118.289 97.7812 118.207C97.8906 118.125 98 118.07 98.1094 118.043C98.2188 117.988 98.3555 117.961 98.4648 117.934C98.7109 117.879 98.957 117.879 99.2031 117.934C99.3398 117.961 99.4492 117.988 99.5586 118.043C99.668 118.098 99.7773 118.152 99.8867 118.207C99.9961 118.262 100.078 118.344 100.188 118.453C100.27 118.535 100.352 118.645 100.434 118.754C100.516 118.863 100.57 118.973 100.598 119.082C100.652 119.191 100.68 119.328 100.707 119.437C100.734 119.547 100.734 119.684 100.734 119.82C100.762 119.902 100.734 120.039 100.707 120.148ZM113.449 127.258C109.32 127.258 105.957 123.895 105.957 119.766C105.957 115.637 109.32 112.273 113.449 112.273C117.578 112.273 120.941 115.637 120.941 119.766C120.914 123.922 117.578 127.258 113.449 127.258Z" fill="#2B79C2"/>
<path d="M49.6563 46.457C49.7656 46.457 49.875 46.457 49.957 46.4297C50.3945 47.7422 51.2969 48.8359 52.4727 49.5469C53.3477 50.0664 54.3594 50.3672 55.4805 50.3672C55.7539 50.3672 56.0547 50.3398 56.3008 50.3125V53.9492H72.8437V35.5195H56.3281V38.7734C56.0547 38.7461 55.7812 38.7188 55.5078 38.7188C54.4141 38.7188 53.375 39.0195 52.5 39.5391C51.3242 40.25 50.4492 41.3438 49.9844 42.6563C49.875 42.6289 49.7656 42.6289 49.6836 42.6289H32.4297C32.5391 43.2578 32.5937 43.8867 32.5937 44.543C32.5937 45.1992 32.5391 45.8281 32.4297 46.457H49.6563Z" fill="#2B79C2"/>
<path d="M20.207 38.1719C17.4727 38.9922 15.4766 41.5352 15.4766 44.543C15.4766 48.207 18.457 51.1875 22.1211 51.1875C25.1289 51.1875 27.6992 49.1914 28.4922 46.4297C28.6562 45.8281 28.7656 45.1992 28.7656 44.543C28.7656 43.8867 28.6562 43.2578 28.4922 42.6562C27.8633 40.5234 26.168 38.8281 24.0352 38.1719V16.5703H109.32V34.2344C109.949 34.125 110.578 34.0703 111.234 34.0703C111.891 34.0703 112.52 34.125 113.148 34.2344V16.5703H128.16V6.09766H11.8672V16.543H20.207V38.1719Z" fill="#3B4652"/>
<path d="M69.1797 57.7773H59.9648V60.7305H62.5078V65.2969C62.5078 66.3633 63.3555 67.2109 64.4219 67.2109C65.4883 67.2109 66.3359 66.3633 66.3359 65.2969V60.7305H69.1797V57.7773Z" fill="#3B4652"/>
<path d="M70.9844 27.4258H58.0234L59.7734 31.6914H69.2617L70.9844 27.4258Z" fill="#3B4652"/>
<path d="M111.234 37.8984C107.57 37.8984 104.59 40.8789 104.59 44.543C104.59 47.4961 106.504 49.9844 109.156 50.8594V54.8242V68.4687C109.785 68.332 110.414 68.2773 111.07 68.2773C111.727 68.2773 112.355 68.332 112.984 68.4687V54.8789V50.9687C115.828 50.2031 117.906 47.6328 117.906 44.543C117.879 40.8516 114.898 37.8984 111.234 37.8984Z" fill="#3B4652"/>
<path d="M120.066 78.75V95.293H101.637V78.75H105.273C105.246 78.4766 105.219 78.2031 105.219 77.9297C105.219 74.7031 107.816 72.1055 111.043 72.1055C114.27 72.1055 116.867 74.7031 116.867 77.9297C116.867 78.2031 116.84 78.5039 116.812 78.75H120.066Z" fill="#2B79C2"/>
<path d="M97.8086 91.6016V87.9922V85.6953V82.3867H94.8555V84.9297H90.2891C89.2227 84.9297 88.375 85.7773 88.375 86.8438C88.375 87.9102 89.2227 88.7578 90.2891 88.7578H94.8555V91.6016H97.8086Z" fill="#3B4652"/>
<path d="M123.895 82.1953V91.6562L128.133 93.4062V80.4453L123.895 82.1953Z" fill="#3B4652"/>
<path d="M82.6875 101.855V75.1953C82.6875 73.9375 81.6484 72.8984 80.3906 72.8984H48.5078C47.25 72.8984 46.2109 73.9375 46.2109 75.1953V101.855H54.1953V91.0547C54.1953 89.9883 55.043 89.1406 56.1094 89.1406C57.1758 89.1406 58.0234 89.9883 58.0234 91.0547V101.828H62.5352V91.0547C62.5352 89.9883 63.3828 89.1406 64.4492 89.1406C65.5156 89.1406 66.3633 89.9883 66.3633 91.0547V101.828H70.875V91.0547C70.875 89.9883 71.7227 89.1406 72.7891 89.1406C73.8555 89.1406 74.7031 89.9883 74.7031 91.0547V101.828H82.6875V101.855Z" fill="#3B4652"/>
</g>
</svg>
