<svg width="37" height="37" viewBox="0 0 37 37" fill="none" xmlns="http://www.w3.org/2000/svg">
<path d="M36.2585 9.79176C35.9523 6.52966 31.1778 6.66714 31.0841 9.9355L30.5842 17.4658C30.2804 17.2854 29.9418 17.1715 29.5907 17.1315C29.2396 17.0915 28.8841 17.1264 28.5475 17.2339C28.2109 17.3413 27.9009 17.5189 27.638 17.755C27.375 17.991 27.1651 18.2801 27.0221 18.6032L25.4223 22.3527C25.3408 22.5358 25.2165 22.6965 25.0598 22.8214L21.6352 25.5898C21.3204 25.8432 21.0716 26.1691 20.9103 26.5397L18.7044 31.6891C18.6705 31.7653 18.6522 31.8475 18.6505 31.9308C18.6489 32.0142 18.6639 32.097 18.6948 32.1745C18.7257 32.2519 18.7717 32.3224 18.8302 32.3818C18.8888 32.4412 18.9586 32.4883 19.0356 32.5202L27.6908 36.2323C27.7666 36.2652 27.8482 36.2827 27.9309 36.2839C28.0136 36.285 28.0956 36.2697 28.1724 36.2389C28.2491 36.2081 28.3189 36.1624 28.3779 36.1044C28.4368 36.0464 28.4836 35.9773 28.5157 35.9011L29.2718 34.1388C29.7321 33.0914 30.4398 32.1714 31.3341 31.4579L34.4587 27.7083C35.0683 27.2177 35.5504 26.587 35.8637 25.87C36.1771 25.1529 36.3125 24.3707 36.2585 23.5901V9.79176ZM33.6338 26.7397L33.5401 26.8334L30.4154 30.583C29.1129 31.7094 28.1427 33.1701 27.6095 34.8075L20.1104 31.5891L22.0664 27.0147C22.1483 26.8336 22.2701 26.6734 22.4227 26.546L25.8535 23.7713C26.1645 23.5207 26.4109 23.1993 26.5721 22.8339L28.1782 19.0844C28.3345 18.8271 28.5784 18.635 28.8651 18.5432C29.1518 18.4514 29.462 18.4661 29.7386 18.5847C30.0153 18.7033 30.2399 18.9177 30.3711 19.1886C30.5023 19.4595 30.5314 19.7687 30.4529 20.0593L27.9532 25.8273C27.8878 25.9798 27.8855 26.152 27.9471 26.3061C28.0086 26.4603 28.1288 26.5836 28.2813 26.6491C28.4338 26.7146 28.606 26.7168 28.7602 26.6552C28.9143 26.5937 29.0376 26.4735 29.1031 26.321L31.6028 20.5467C31.8078 20.0676 31.8538 19.5353 31.734 19.0281L32.3589 9.96674C32.3941 9.64941 32.5411 9.35496 32.7736 9.13617C33.0062 8.91738 33.309 8.78854 33.6279 8.77275C33.9468 8.75695 34.2609 8.85523 34.5139 9.04998C34.7669 9.24472 34.9423 9.5232 35.0086 9.83551V23.6338C35.0497 24.2237 34.9465 24.8147 34.7081 25.3559C34.4696 25.897 34.1031 26.3719 33.64 26.7397H33.6338Z" fill="#28BCBE"/>
<path d="M17.5544 31.6882L15.3484 26.5389C15.1907 26.1679 14.9438 25.8417 14.6298 25.589L11.1927 22.8143C11.0365 22.6905 10.914 22.5293 10.8365 22.3456L9.23044 18.5961C9.0873 18.2739 8.87761 17.9856 8.61515 17.7502C8.35268 17.5147 8.04339 17.3375 7.70757 17.2301C7.37175 17.1227 7.017 17.0875 6.66663 17.1269C6.31626 17.1663 5.97819 17.2794 5.67462 17.4587L5.16844 9.95964C5.13016 9.31128 4.84943 8.70103 4.382 8.2501C3.91457 7.79917 3.29463 7.54054 2.64531 7.52559C1.996 7.51063 1.36481 7.74045 0.877116 8.16938C0.389419 8.59832 0.080892 9.19499 0.0128131 9.8409V23.5455C-0.0439216 24.3264 0.0883162 25.1096 0.398335 25.8286C0.708353 26.5476 1.18703 27.1814 1.79385 27.6762L4.91847 31.4258C5.81627 32.1374 6.5264 33.0577 6.98696 34.1067L7.74312 35.869C7.80786 36.0214 7.93043 36.1419 8.08392 36.204C8.23742 36.2661 8.40928 36.2647 8.56177 36.2002L17.2232 32.5194C17.3002 32.4874 17.37 32.4403 17.4286 32.3809C17.4871 32.3216 17.5331 32.2511 17.564 32.1736C17.5949 32.0962 17.6099 32.0133 17.6083 31.93C17.6066 31.8466 17.5883 31.7644 17.5544 31.6882ZM5.84335 30.6009L2.71873 26.8513C2.22384 26.4716 1.8315 25.9744 1.57724 25.4048C1.32299 24.8352 1.21487 24.2112 1.26266 23.5892V9.88465C1.31471 9.55873 1.48543 9.26358 1.74198 9.05596C1.99854 8.84834 2.3228 8.74292 2.6524 8.75998C2.982 8.77704 3.29365 8.91538 3.52739 9.14838C3.76114 9.38138 3.90047 9.69259 3.91859 10.0221L4.54351 19.0398C4.4281 19.5473 4.47398 20.0782 4.67475 20.5583L7.17444 26.3326C7.23991 26.4851 7.36327 26.6054 7.51738 26.6669C7.67149 26.7284 7.84374 26.7262 7.99622 26.6607C8.1487 26.5953 8.26893 26.4719 8.33045 26.3178C8.39198 26.1637 8.38977 25.9914 8.3243 25.839L5.82461 20.0709C5.74614 19.7803 5.77519 19.4711 5.90642 19.2002C6.03765 18.9293 6.26223 18.7149 6.53891 18.5963C6.81558 18.4777 7.12575 18.463 7.41242 18.5548C7.69909 18.6466 7.943 18.8388 8.09933 19.096L9.70538 22.8456C9.86295 23.2045 10.1027 23.5213 10.4053 23.7705L13.8424 26.5451C13.9986 26.669 14.1211 26.8302 14.1986 27.0138L16.1608 31.5882L8.66176 34.8066C8.12582 33.1727 7.15079 31.7177 5.84335 30.6009Z" fill="#28BCBE"/>
<path d="M27.0657 12.1596C32.9525 5.96665 25.3722 -3.29473 18.1356 1.19848C10.9052 -3.32597 3.33738 5.97914 9.20542 12.1596L17.6919 20.6461C17.7791 20.7339 17.8903 20.7938 18.0116 20.8183C18.1329 20.8427 18.2587 20.8307 18.3731 20.7836C18.4455 20.7436 18.5145 20.6976 18.5793 20.6461L27.0657 12.1596ZM9.51788 10.6098C6.67448 6.86029 9.51788 1.19223 14.2361 1.27347C15.5208 1.27295 16.7701 1.69451 17.7919 2.47332C17.9297 2.55919 18.0939 2.59247 18.2543 2.56706C22.2226 -0.376332 27.8281 2.07962 27.8969 7.13525C27.9001 7.90448 27.7498 8.66661 27.4547 9.37699C27.1596 10.0874 26.7257 10.7317 26.1784 11.2722L18.1356 19.3213L10.0928 11.2722C9.88387 11.0671 9.69162 10.8456 9.51788 10.6098Z" fill="#AAAAAA"/>
<path d="M22.0292 3.7728C22.9204 3.77279 23.7753 4.12595 24.4066 4.75494C25.0379 5.38392 25.3943 6.23747 25.3976 7.12864C25.3976 7.29438 25.4634 7.45333 25.5806 7.57053C25.6978 7.68772 25.8567 7.75356 26.0225 7.75356C26.1882 7.75356 26.3472 7.68772 26.4644 7.57053C26.5816 7.45333 26.6474 7.29438 26.6474 7.12864C26.6425 5.90649 26.1539 4.736 25.2885 3.87298C24.4232 3.00996 23.2514 2.52459 22.0292 2.52295C21.8635 2.52295 21.7045 2.58879 21.5873 2.70599C21.4701 2.82318 21.4043 2.98213 21.4043 3.14787C21.4043 3.31361 21.4701 3.47256 21.5873 3.58976C21.7045 3.70696 21.8635 3.7728 22.0292 3.7728Z" fill="#476A6B"/>
</svg>
