<svg width="40" height="40" viewBox="0 0 40 40" fill="none" xmlns="http://www.w3.org/2000/svg">
<path d="M15.4837 0.64502C13.6715 0.64502 12.1128 1.71534 11.3934 3.25599C11.2521 3.24244 11.1121 3.22566 10.9676 3.22566C8.47341 3.22566 6.45147 5.2476 6.45147 7.74179V8.01405C5.4405 8.45663 4.71276 9.40308 4.55986 10.5347L4.51599 10.5095C2.65018 11.065 1.29018 12.7928 1.29018 14.8386C1.29018 15.7076 1.53986 16.5166 1.96566 17.2057C1.14695 18.1192 0.64502 19.3218 0.64502 20.645C0.64502 22.1573 1.29792 23.5153 2.3347 24.4592C2.07792 25.0728 1.93534 25.745 1.93534 26.4515C1.93534 29.0837 3.90566 31.2553 6.45147 31.5728V31.5715V31.6128H6.69534C7.15599 32.9166 8.2805 33.905 9.67663 34.1399L9.68631 34.0212C9.68437 34.0792 9.67728 34.1353 9.67728 34.1934C9.67728 37.0437 11.9882 39.3547 14.8386 39.3547C17.6889 39.3547 19.9999 37.0437 19.9999 34.1934V5.16115C19.9999 2.66696 17.9779 0.64502 15.4837 0.64502ZM6.45147 23.8418V23.8708C6.44502 23.8882 6.44631 23.8741 6.45147 23.8418Z" fill="white"/>
<path d="M24.5162 17.4194H21.9355V16.1291H24.5162C24.8717 16.1291 25.1614 15.8394 25.1614 15.4839V10.9678H26.4517V15.4839C26.4517 16.551 25.5833 17.4194 24.5162 17.4194Z" fill="#476A6B"/>
<path d="M25.8066 9.67761C24.7395 9.67761 23.8711 8.80922 23.8711 7.74212C23.8711 6.67503 24.7395 5.80664 25.8066 5.80664C26.8737 5.80664 27.7421 6.67503 27.7421 7.74212C27.7421 8.80922 26.8737 9.67761 25.8066 9.67761ZM25.8066 7.09696C25.4511 7.09696 25.1614 7.38664 25.1614 7.74212C25.1614 8.09761 25.4511 8.38729 25.8066 8.38729C26.1621 8.38729 26.4517 8.09761 26.4517 7.74212C26.4517 7.38664 26.1621 7.09696 25.8066 7.09696Z" fill="#476A6B"/>
<path d="M26.4517 29.0322H25.1614V24.5161C25.1614 24.1606 24.8717 23.8709 24.5162 23.8709H21.9355V22.5806H24.5162C25.5833 22.5806 26.4517 23.449 26.4517 24.5161V29.0322Z" fill="#476A6B"/>
<path d="M25.8066 34.1937C24.7395 34.1937 23.8711 33.3253 23.8711 32.2582C23.8711 31.1911 24.7395 30.3228 25.8066 30.3228C26.8737 30.3228 27.7421 31.1911 27.7421 32.2582C27.7421 33.3253 26.8737 34.1937 25.8066 34.1937ZM25.8066 31.6131C25.4511 31.6131 25.1614 31.9028 25.1614 32.2582C25.1614 32.6137 25.4511 32.9034 25.8066 32.9034C26.1621 32.9034 26.4517 32.6137 26.4517 32.2582C26.4517 31.9028 26.1621 31.6131 25.8066 31.6131Z" fill="#476A6B"/>
<path d="M28.3872 20.6452H21.9355V19.3549H28.3872C29.4543 19.3549 30.3226 18.4865 30.3226 17.4194V15.4839H31.613V17.4194C31.613 19.1981 30.1659 20.6452 28.3872 20.6452Z" fill="#476A6B"/>
<path d="M30.9677 14.1937C29.9006 14.1937 29.0322 13.3253 29.0322 12.2582C29.0322 11.1911 29.9006 10.3228 30.9677 10.3228C32.0348 10.3228 32.9032 11.1911 32.9032 12.2582C32.9032 13.3253 32.0348 14.1937 30.9677 14.1937ZM30.9677 11.6131C30.6122 11.6131 30.3225 11.9028 30.3225 12.2582C30.3225 12.6137 30.6122 12.9034 30.9677 12.9034C31.3232 12.9034 31.6129 12.6137 31.6129 12.2582C31.6129 11.9028 31.3232 11.6131 30.9677 11.6131Z" fill="#476A6B"/>
<path d="M31.6131 22.5806H30.3228V29.0322H31.6131V22.5806Z" fill="#476A6B"/>
<path d="M34.8387 13.5483H33.5483V23.8709H34.8387V13.5483Z" fill="#476A6B"/>
<path d="M34.8387 25.1611H33.5483V26.4515H34.8387V25.1611Z" fill="#476A6B"/>
<path d="M23.0852 0.236774C22.1497 0.0929032 21.2013 0.361936 20.4826 0.977419C20.1155 1.29161 19.8303 1.68 19.6381 2.11032C18.6968 0.833548 17.1877 0 15.4839 0C13.5768 0 11.9123 1.04194 11.0187 2.58452C11.0019 2.58387 10.9845 2.58065 10.9677 2.58065C8.16387 2.58065 5.88 4.82903 5.8129 7.61677C4.91806 8.13419 4.25097 8.99742 3.99226 10.0239C2.00903 10.7748 0.645161 12.6955 0.645161 14.8387C0.645161 15.6355 0.832258 16.4206 1.18839 17.1348C0.41871 18.1439 0 19.3735 0 20.6452C0 22.1329 0.574839 23.5555 1.58774 24.629C1.39742 25.2026 1.29032 25.8148 1.29032 26.4516C1.29032 29.3187 3.39355 31.751 6.2071 32.1845C6.73935 33.3671 7.76645 34.2819 9.05548 34.6548C9.29226 37.6413 11.7929 40 14.8387 40C16.7639 40 18.4684 39.0542 19.5252 37.6071C19.709 38.1503 20.0361 38.6406 20.4819 39.0226C21.0735 39.529 21.82 39.8019 22.5871 39.8019C22.7523 39.8019 22.9187 39.789 23.0845 39.7632C32.8864 38.2458 40 29.9335 40 20C40 10.0665 32.8865 1.75419 23.0852 0.236774ZM14.8387 38.7097C12.3484 38.7097 10.3226 36.6839 10.3226 34.1935C10.3226 31.7032 12.3484 29.6774 14.8387 29.6774V28.3871C11.9406 28.3871 9.53806 30.5245 9.10774 33.3039C7.9129 32.8206 7.09677 31.6632 7.09677 30.3226C7.09677 28.5439 8.54387 27.0968 10.3226 27.0968V25.8064C7.83226 25.8064 5.80645 27.8323 5.80645 30.3226C5.80645 30.4787 5.81613 30.6323 5.83161 30.7845C3.93742 30.2329 2.58065 28.4826 2.58065 26.4516C2.58065 23.9613 4.60645 21.9355 7.09677 21.9355V20.6452C5.03484 20.6452 3.22516 21.729 2.19484 23.3529C1.61355 22.5774 1.29032 21.629 1.29032 20.6452C1.29032 19.5368 1.70064 18.4684 2.44645 17.6361L2.76839 17.2768L2.51484 16.8665C2.13613 16.2535 1.93548 15.5523 1.93548 14.8387C1.93548 13.4329 2.71935 12.1561 3.90839 11.4787C4.16 13.3723 5.78129 14.8387 7.74194 14.8387V13.5484C6.31871 13.5484 5.16129 12.391 5.16129 10.9677C5.16129 9.54452 6.31871 8.3871 7.74194 8.3871C9.16516 8.3871 10.3226 9.54452 10.3226 10.9677H11.6129C11.6129 8.8329 9.87677 7.09677 7.74194 7.09677C7.53935 7.09677 7.34194 7.11742 7.1471 7.1471C7.41032 5.45226 8.77355 4.11935 10.4839 3.90452C10.3826 4.30774 10.3226 4.7271 10.3226 5.16129C10.3226 8.0071 12.6381 10.3226 15.4839 10.3226V9.03226C13.349 9.03226 11.6129 7.29613 11.6129 5.16129C11.6129 3.02645 13.349 1.29032 15.4839 1.29032C17.6187 1.29032 19.3548 3.02645 19.3548 5.16129V34.1935C19.3548 36.6839 17.329 38.7097 14.8387 38.7097ZM22.8871 38.4884C22.3252 38.5774 21.7542 38.4129 21.3219 38.0432C20.8916 37.6742 20.6452 37.1381 20.6452 36.5729V3.4271C20.6452 2.86129 20.8916 2.32516 21.3219 1.95677C21.6774 1.65226 22.1271 1.48839 22.5884 1.48839C22.6877 1.48839 22.7877 1.49613 22.8877 1.51161C31.9077 2.90839 38.7097 10.8568 38.7097 20C38.7097 29.1432 31.9077 37.0916 22.8871 38.4884Z" fill="#28BCBE"/>
<path d="M16.7742 4.51611H15.4839V5.80644H16.7742V4.51611Z" fill="white"/>
<path d="M13.5486 19.355H12.2583V20.6453H13.5486V19.355Z" fill="white"/>
<path d="M17.4192 33.5483H16.1289V34.8387H17.4192V33.5483Z" fill="white"/>
<path d="M6.45146 23.8711H5.16113V25.1614H6.45146V23.8711Z" fill="white"/>
<path d="M18.0647 14.8389H16.7744V16.1292H18.0647V14.8389Z" fill="white"/>
<path d="M5.80644 16.1289H4.51611V17.4192H5.80644V16.1289Z" fill="white"/>
</svg>
