<svg width="40" height="45" viewBox="0 0 40 45" fill="none" xmlns="http://www.w3.org/2000/svg">
<path fill-rule="evenodd" clip-rule="evenodd" d="M20.3691 21.4891V1.90204H17.8272V21.4891H20.3691ZM2.2605 44.2089C1.47587 44.2089 1.64528 43.2404 1.64528 42.5401C0.959851 42.5401 0 42.7068 0 41.9249C0 41.1428 0.959747 41.3096 1.64528 41.3096V38.1356C0.959851 38.1356 0 38.3023 0 37.5203C0 36.7384 0.959853 36.9051 1.64528 36.9051V33.731C0.959851 33.731 0 33.8977 0 33.1158C0 32.3339 0.959853 32.5006 1.64528 32.5006V29.3264C0.959851 29.3264 0 29.4932 0 28.7112C0 27.9291 0.959853 28.0959 1.64528 28.096V24.9219C0.959851 24.9219 0 25.0886 0 24.3067C0 23.5247 0.959853 23.6914 1.64528 23.6914V20.5174C0.959851 20.5174 0 20.6841 0 19.9022C0 19.1203 0.959853 19.287 1.64528 19.287V16.113C0.959747 16.113 0 16.2798 0 15.4977C0 14.7157 0.959853 14.8824 1.64528 14.8824V11.7083C0.959851 11.7083 0 11.875 0 11.0931C0 10.3112 0.959853 10.4779 1.64528 10.4779V7.30385C0.959747 7.30385 0 7.47066 0 6.68853C0 5.9066 0.959853 6.07331 1.64528 6.07331V2.89929C0.959851 2.89929 0 3.066 0 2.28408C0 1.50205 0.959747 1.66886 1.64528 1.66886C1.64528 0.968367 1.47587 0 2.2605 0C2.60025 0 2.87571 0.275356 2.87571 0.615216V21.4892H5.27945V5.11855C5.27945 4.7788 5.55491 4.50334 5.89467 4.50334H9.66719C10.0069 4.50334 10.2824 4.7788 10.2824 5.11855V8.57209H13.4395C13.7793 8.57209 14.0547 8.84745 14.0547 9.18731V12.7594H16.5968V1.28678C16.5968 0.947029 16.8723 0.671569 17.212 0.671569H20.9843C21.3241 0.671569 21.5996 0.947029 21.5996 1.28678V21.4892H39.3925C40.2025 21.4892 40.2025 22.7196 39.3925 22.7196H36.6892V42.922C36.6892 43.2618 36.4138 43.5373 36.074 43.5373H32.3016C31.9618 43.5373 31.6864 43.2618 31.6864 42.922V31.4496H29.1444V35.0215C29.1444 35.3614 28.8689 35.6368 28.5292 35.6368H25.3721V39.0903C25.3721 39.43 25.0966 39.7055 24.7569 39.7055H20.9843C20.6446 39.7055 20.3691 39.43 20.3691 39.0903V22.7197H2.87569V43.5937C2.87569 43.9334 2.60025 44.2089 2.2605 44.2089ZM16.5968 21.4891V13.9898H14.0547V21.4891H16.5968ZM12.8243 21.4891V9.8025H10.2824V21.4891H12.8243ZM9.05199 21.4891V5.73377H6.5099V21.4891H9.05199ZM21.5996 22.7197V38.475H24.1417V22.7197H21.5996ZM25.3721 22.7197V34.4063H27.914V22.7197H25.3721ZM29.1444 22.7197V30.219H31.6864V22.7197H29.1444ZM32.9168 22.7197V42.3067H35.4588V22.7197H32.9168Z" fill="#52ABB3"/>
<path fill-rule="evenodd" clip-rule="evenodd" d="M20.369 21.4889V1.90186H17.8271V21.4889H20.369Z" fill="#AADDE3"/>
<path fill-rule="evenodd" clip-rule="evenodd" d="M16.5968 21.4891V13.9897H14.0547V21.4891H16.5968Z" fill="#F9F9F9"/>
<path fill-rule="evenodd" clip-rule="evenodd" d="M12.8241 21.4894V9.80273H10.2822V21.4894H12.8241Z" fill="#AADDE3"/>
<path fill-rule="evenodd" clip-rule="evenodd" d="M9.05182 21.4892V5.73389H6.50977V21.4892H9.05182Z" fill="#F9F9F9"/>
<path fill-rule="evenodd" clip-rule="evenodd" d="M32.917 22.7197V42.3068H35.459V22.7197H32.917Z" fill="#AADDE3"/>
<path fill-rule="evenodd" clip-rule="evenodd" d="M31.6865 30.2191V22.7197H29.1445V30.2191H31.6865Z" fill="#F9F9F9"/>
<path fill-rule="evenodd" clip-rule="evenodd" d="M27.9139 34.4063V22.7197H25.3721V34.4063H27.9139Z" fill="#AADDE3"/>
<path fill-rule="evenodd" clip-rule="evenodd" d="M24.1418 38.4751V22.7197H21.5996V38.4751H24.1418Z" fill="#F9F9F9"/>
</svg>
